<svg width="438" height="964" viewBox="0 0 438 964" fill="none" xmlns="http://www.w3.org/2000/svg">
<g clip-path="url(#clip0_247_17)" filter="url(#filter0_d_247_17)">
<rect width="430" height="956" transform="translate(4)" fill="url(#paint0_linear_247_17)"/>
<path d="M566 284.5C566 402.627 514.339 507.772 434 575.209C433.685 575.473 433.37 575.737 433.054 576C375.133 624.27 302.435 653 223.5 653C34.3425 653 -119 488.017 -119 284.5C-119 80.9831 34.3425 -84 223.5 -84C412.658 -84 566 80.9831 566 284.5Z" fill="white"/>
<path d="M37.5 448.322C36.1849 448.322 35.0488 448.023 34.0918 447.424C33.1348 446.825 32.3958 445.975 31.875 444.875C31.3542 443.775 31.0938 442.469 31.0938 440.959V440.949C31.0938 439.432 31.3542 438.127 31.875 437.033C32.3958 435.933 33.1315 435.083 34.082 434.484C35.0391 433.885 36.1751 433.586 37.4902 433.586C38.5254 433.586 39.4629 433.791 40.3027 434.201C41.1426 434.605 41.8294 435.165 42.3633 435.881C42.8971 436.59 43.2292 437.411 43.3594 438.342V438.41H41.1816L41.1621 438.332C41.0189 437.759 40.7747 437.264 40.4297 436.848C40.0911 436.431 39.6712 436.109 39.1699 435.881C38.6751 435.646 38.1152 435.529 37.4902 435.529C36.6439 435.529 35.9082 435.751 35.2832 436.193C34.6647 436.636 34.1862 437.261 33.8477 438.068C33.5091 438.876 33.3398 439.833 33.3398 440.939V440.959C33.3398 442.066 33.5091 443.026 33.8477 443.84C34.1862 444.647 34.668 445.272 35.293 445.715C35.918 446.158 36.6536 446.379 37.5 446.379C38.125 446.379 38.6849 446.275 39.1797 446.066C39.681 445.852 40.1009 445.549 40.4395 445.158C40.7845 444.768 41.0254 444.299 41.1621 443.752L41.1816 443.703H43.3594V443.762C43.2227 444.673 42.8874 445.471 42.3535 446.154C41.8262 446.838 41.1458 447.372 40.3125 447.756C39.4857 448.133 38.5482 448.322 37.5 448.322ZM45.8789 448V433.391H47.998V439.104H48.1348C48.3952 438.524 48.7826 438.075 49.2969 437.756C49.8177 437.43 50.4622 437.268 51.2305 437.268C52.0117 437.268 52.6758 437.427 53.2227 437.746C53.7695 438.059 54.1862 438.514 54.4727 439.113C54.7591 439.706 54.9023 440.419 54.9023 441.252V448H52.7832V441.73C52.7832 440.858 52.5944 440.201 52.2168 439.758C51.8392 439.309 51.263 439.084 50.4883 439.084C49.9805 439.084 49.541 439.198 49.1699 439.426C48.7988 439.654 48.5091 439.973 48.3008 440.383C48.099 440.793 47.998 441.278 47.998 441.838V448H45.8789ZM60.5762 448.186C59.8991 448.186 59.2969 448.055 58.7695 447.795C58.2487 447.535 57.8353 447.17 57.5293 446.701C57.2298 446.226 57.0801 445.669 57.0801 445.031V445.012C57.0801 444.387 57.2331 443.853 57.5391 443.41C57.8451 442.961 58.291 442.609 58.877 442.355C59.4629 442.095 60.1725 441.942 61.0059 441.896L64.9121 441.662V443.156L61.2891 443.381C60.5859 443.42 60.0618 443.573 59.7168 443.84C59.3717 444.107 59.1992 444.471 59.1992 444.934V444.953C59.1992 445.435 59.3815 445.812 59.7461 446.086C60.1107 446.353 60.5794 446.486 61.1523 446.486C61.6667 446.486 62.1289 446.382 62.5391 446.174C62.9492 445.959 63.2715 445.673 63.5059 445.314C63.7402 444.956 63.8574 444.549 63.8574 444.094V440.822C63.8574 440.249 63.6751 439.807 63.3105 439.494C62.9525 439.182 62.4251 439.025 61.7285 439.025C61.1296 439.025 60.6445 439.136 60.2734 439.357C59.9023 439.572 59.6582 439.872 59.541 440.256L59.5215 440.305H57.4902L57.5 440.217C57.5781 439.637 57.8027 439.126 58.1738 438.684C58.5514 438.241 59.0462 437.896 59.6582 437.648C60.2767 437.395 60.9928 437.268 61.8066 437.268C62.6855 437.268 63.4342 437.411 64.0527 437.697C64.6777 437.977 65.153 438.381 65.4785 438.908C65.804 439.429 65.9668 440.054 65.9668 440.783V448H63.8574V446.467H63.7207C63.5124 446.825 63.252 447.134 62.9395 447.395C62.627 447.648 62.2721 447.844 61.875 447.98C61.4779 448.117 61.0449 448.186 60.5762 448.186ZM61.1328 436.086L58.8477 432.785H61.0547L62.7734 436.086H61.1328ZM73.2129 448.205C72.1908 448.205 71.3053 447.987 70.5566 447.551C69.8079 447.108 69.2318 446.48 68.8281 445.666C68.4245 444.846 68.2227 443.872 68.2227 442.746V442.727C68.2227 441.594 68.4245 440.62 68.8281 439.807C69.2383 438.993 69.8145 438.368 70.5566 437.932C71.3053 437.489 72.1875 437.268 73.2031 437.268C74.2318 437.268 75.1172 437.489 75.8594 437.932C76.6016 438.368 77.1745 438.993 77.5781 439.807C77.9883 440.62 78.1934 441.594 78.1934 442.727V442.746C78.1934 443.872 77.9915 444.846 77.5879 445.666C77.1842 446.48 76.6081 447.108 75.8594 447.551C75.1172 447.987 74.235 448.205 73.2129 448.205ZM73.2129 446.428C73.8053 446.428 74.3099 446.281 74.7266 445.988C75.1432 445.695 75.4622 445.275 75.6836 444.729C75.9115 444.182 76.0254 443.521 76.0254 442.746V442.727C76.0254 441.945 75.9115 441.281 75.6836 440.734C75.4622 440.188 75.14 439.771 74.7168 439.484C74.3001 439.191 73.7956 439.045 73.2031 439.045C72.6172 439.045 72.1126 439.191 71.6895 439.484C71.2728 439.771 70.9505 440.188 70.7227 440.734C70.5013 441.281 70.3906 441.945 70.3906 442.727V442.746C70.3906 443.521 70.5013 444.185 70.7227 444.738C70.9505 445.285 71.2728 445.705 71.6895 445.998C72.1126 446.285 72.6204 446.428 73.2129 446.428ZM85.625 448V437.473H87.7539V439.094H87.8906C88.1185 438.521 88.4798 438.075 88.9746 437.756C89.4759 437.43 90.0716 437.268 90.7617 437.268C91.2435 437.268 91.6764 437.346 92.0605 437.502C92.4447 437.658 92.7734 437.883 93.0469 438.176C93.3203 438.462 93.5319 438.801 93.6816 439.191H93.8184C94.0007 438.801 94.248 438.462 94.5605 438.176C94.8796 437.889 95.2507 437.668 95.6738 437.512C96.097 437.349 96.5527 437.268 97.041 437.268C97.7507 437.268 98.3561 437.408 98.8574 437.688C99.3652 437.967 99.7526 438.368 100.02 438.889C100.293 439.403 100.43 440.021 100.43 440.744V448H98.3105V441.252C98.3105 440.777 98.2357 440.38 98.0859 440.061C97.9362 439.735 97.7116 439.491 97.4121 439.328C97.1126 439.165 96.7383 439.084 96.2891 439.084C95.8464 439.084 95.459 439.185 95.127 439.387C94.7949 439.589 94.5378 439.862 94.3555 440.207C94.1732 440.546 94.082 440.93 94.082 441.359V448H91.9727V441.057C91.9727 440.653 91.888 440.305 91.7188 440.012C91.556 439.712 91.3249 439.484 91.0254 439.328C90.7259 439.165 90.3678 439.084 89.9512 439.084C89.5345 439.084 89.1569 439.195 88.8184 439.416C88.4863 439.631 88.2259 439.924 88.0371 440.295C87.8483 440.66 87.7539 441.07 87.7539 441.525V448H85.625ZM106.689 448.205C105.908 448.205 105.247 448.052 104.707 447.746C104.167 447.434 103.76 446.984 103.486 446.398C103.219 445.812 103.086 445.109 103.086 444.289V437.473H105.205V443.811C105.205 444.663 105.378 445.305 105.723 445.734C106.074 446.164 106.634 446.379 107.402 446.379C107.812 446.379 108.174 446.317 108.486 446.193C108.805 446.063 109.076 445.881 109.297 445.646C109.518 445.406 109.684 445.116 109.795 444.777C109.906 444.439 109.961 444.061 109.961 443.645V437.473H112.08V448H109.961V446.408H109.824C109.655 446.779 109.424 447.102 109.131 447.375C108.838 447.642 108.486 447.847 108.076 447.99C107.673 448.133 107.21 448.205 106.689 448.205ZM112.803 434.436H114.648C114.648 435.145 114.583 435.747 114.453 436.242C114.323 436.73 114.111 437.134 113.818 437.453C113.525 437.766 113.138 438.016 112.656 438.205C112.174 438.387 111.576 438.531 110.859 438.635L109.961 438.781V437.473C110.547 437.434 111.025 437.349 111.396 437.219C111.768 437.082 112.054 436.893 112.256 436.652C112.464 436.411 112.607 436.109 112.686 435.744C112.764 435.373 112.803 434.937 112.803 434.436ZM106.895 436.086L104.609 432.785H106.816L108.535 436.086H106.895ZM115.586 448V437.473H117.715V439.064H117.852C118.112 438.511 118.496 438.075 119.004 437.756C119.518 437.43 120.163 437.268 120.938 437.268C122.116 437.268 123.018 437.609 123.643 438.293C124.274 438.977 124.59 439.94 124.59 441.184V448H122.471V441.662C122.471 440.803 122.285 440.158 121.914 439.729C121.543 439.299 120.973 439.084 120.205 439.084C119.697 439.084 119.255 439.198 118.877 439.426C118.506 439.647 118.219 439.963 118.018 440.373C117.816 440.783 117.715 441.268 117.715 441.828V448H115.586ZM131.816 451.711C130.924 451.711 130.15 451.587 129.492 451.34C128.835 451.092 128.311 450.751 127.92 450.314C127.536 449.878 127.298 449.374 127.207 448.801V448.762H129.346L129.365 448.791C129.463 449.149 129.723 449.442 130.146 449.67C130.576 449.898 131.139 450.012 131.836 450.012C132.702 450.012 133.376 449.81 133.857 449.406C134.339 449.009 134.58 448.449 134.58 447.727V445.803H134.443C134.235 446.187 133.968 446.516 133.643 446.789C133.324 447.056 132.956 447.261 132.539 447.404C132.122 447.541 131.67 447.609 131.182 447.609C130.29 447.609 129.515 447.395 128.857 446.965C128.206 446.529 127.702 445.926 127.344 445.158C126.986 444.39 126.807 443.498 126.807 442.482V442.463C126.807 441.441 126.986 440.542 127.344 439.768C127.708 438.986 128.219 438.378 128.877 437.941C129.535 437.505 130.316 437.287 131.221 437.287C131.715 437.287 132.168 437.365 132.578 437.521C132.995 437.678 133.359 437.902 133.672 438.195C133.991 438.482 134.255 438.824 134.463 439.221H134.57V437.473H136.689V447.766C136.689 448.566 136.491 449.26 136.094 449.846C135.697 450.438 135.133 450.897 134.404 451.223C133.675 451.548 132.812 451.711 131.816 451.711ZM131.768 445.861C132.354 445.861 132.858 445.721 133.281 445.441C133.704 445.155 134.03 444.758 134.258 444.25C134.492 443.742 134.609 443.156 134.609 442.492V442.473C134.609 441.802 134.492 441.213 134.258 440.705C134.03 440.197 133.704 439.803 133.281 439.523C132.858 439.237 132.354 439.094 131.768 439.094C131.182 439.094 130.68 439.237 130.264 439.523C129.847 439.803 129.528 440.197 129.307 440.705C129.085 441.213 128.975 441.802 128.975 442.473V442.482C128.975 443.16 129.085 443.752 129.307 444.26C129.528 444.761 129.847 445.155 130.264 445.441C130.68 445.721 131.182 445.861 131.768 445.861ZM150.234 448.186C149.74 448.186 149.284 448.111 148.867 447.961C148.451 447.811 148.083 447.596 147.764 447.316C147.451 447.036 147.191 446.701 146.982 446.311H146.846V448H144.727V433.391H146.846V439.162H146.982C147.178 438.778 147.435 438.446 147.754 438.166C148.079 437.886 148.454 437.671 148.877 437.521C149.3 437.365 149.753 437.287 150.234 437.287C151.126 437.287 151.898 437.508 152.549 437.951C153.206 438.394 153.714 439.022 154.072 439.836C154.43 440.65 154.609 441.613 154.609 442.727V442.746C154.609 443.853 154.427 444.813 154.062 445.627C153.704 446.441 153.197 447.072 152.539 447.521C151.888 447.964 151.12 448.186 150.234 448.186ZM149.639 446.369C150.225 446.369 150.726 446.223 151.143 445.93C151.559 445.637 151.878 445.22 152.1 444.68C152.327 444.139 152.441 443.495 152.441 442.746V442.727C152.441 441.971 152.327 441.327 152.1 440.793C151.878 440.253 151.559 439.836 151.143 439.543C150.726 439.25 150.225 439.104 149.639 439.104C149.066 439.104 148.568 439.25 148.145 439.543C147.721 439.836 147.393 440.253 147.158 440.793C146.93 441.333 146.816 441.978 146.816 442.727V442.746C146.816 443.488 146.93 444.13 147.158 444.67C147.393 445.21 147.721 445.63 148.145 445.93C148.568 446.223 149.066 446.369 149.639 446.369ZM159.854 448.186C159.176 448.186 158.574 448.055 158.047 447.795C157.526 447.535 157.113 447.17 156.807 446.701C156.507 446.226 156.357 445.669 156.357 445.031V445.012C156.357 444.387 156.51 443.853 156.816 443.41C157.122 442.961 157.568 442.609 158.154 442.355C158.74 442.095 159.45 441.942 160.283 441.896L164.189 441.662V443.156L160.566 443.381C159.863 443.42 159.339 443.573 158.994 443.84C158.649 444.107 158.477 444.471 158.477 444.934V444.953C158.477 445.435 158.659 445.812 159.023 446.086C159.388 446.353 159.857 446.486 160.43 446.486C160.944 446.486 161.406 446.382 161.816 446.174C162.227 445.959 162.549 445.673 162.783 445.314C163.018 444.956 163.135 444.549 163.135 444.094V440.822C163.135 440.249 162.952 439.807 162.588 439.494C162.23 439.182 161.702 439.025 161.006 439.025C160.407 439.025 159.922 439.136 159.551 439.357C159.18 439.572 158.936 439.872 158.818 440.256L158.799 440.305H156.768L156.777 440.217C156.855 439.637 157.08 439.126 157.451 438.684C157.829 438.241 158.324 437.896 158.936 437.648C159.554 437.395 160.27 437.268 161.084 437.268C161.963 437.268 162.712 437.411 163.33 437.697C163.955 437.977 164.43 438.381 164.756 438.908C165.081 439.429 165.244 440.054 165.244 440.783V448H163.135V446.467H162.998C162.79 446.825 162.529 447.134 162.217 447.395C161.904 447.648 161.549 447.844 161.152 447.98C160.755 448.117 160.322 448.186 159.854 448.186ZM160.918 452.355C160.566 452.355 160.26 452.229 160 451.975C159.746 451.721 159.619 451.418 159.619 451.066C159.619 450.708 159.746 450.406 160 450.158C160.26 449.911 160.566 449.787 160.918 449.787C161.276 449.787 161.579 449.911 161.826 450.158C162.08 450.406 162.207 450.708 162.207 451.066C162.207 451.418 162.08 451.721 161.826 451.975C161.579 452.229 161.276 452.355 160.918 452.355ZM168.008 448V437.473H170.137V439.064H170.273C170.534 438.511 170.918 438.075 171.426 437.756C171.94 437.43 172.585 437.268 173.359 437.268C174.538 437.268 175.439 437.609 176.064 438.293C176.696 438.977 177.012 439.94 177.012 441.184V448H174.893V441.662C174.893 440.803 174.707 440.158 174.336 439.729C173.965 439.299 173.395 439.084 172.627 439.084C172.119 439.084 171.676 439.198 171.299 439.426C170.928 439.647 170.641 439.963 170.439 440.373C170.238 440.783 170.137 441.268 170.137 441.828V448H168.008ZM188.73 448.186C187.845 448.186 187.074 447.964 186.416 447.521C185.758 447.072 185.251 446.441 184.893 445.627C184.535 444.813 184.355 443.853 184.355 442.746V442.727C184.355 441.613 184.535 440.65 184.893 439.836C185.251 439.022 185.755 438.394 186.406 437.951C187.064 437.508 187.835 437.287 188.721 437.287C189.209 437.287 189.661 437.365 190.078 437.521C190.501 437.671 190.876 437.886 191.201 438.166C191.527 438.446 191.784 438.778 191.973 439.162H192.109V433.391H194.238V448H192.109V446.311H191.973C191.771 446.701 191.51 447.036 191.191 447.316C190.872 447.596 190.505 447.811 190.088 447.961C189.678 448.111 189.225 448.186 188.73 448.186ZM189.316 446.369C189.896 446.369 190.397 446.223 190.82 445.93C191.243 445.63 191.569 445.21 191.797 444.67C192.025 444.13 192.139 443.488 192.139 442.746V442.727C192.139 441.978 192.021 441.333 191.787 440.793C191.559 440.253 191.234 439.836 190.811 439.543C190.394 439.25 189.896 439.104 189.316 439.104C188.743 439.104 188.245 439.25 187.822 439.543C187.406 439.836 187.083 440.253 186.855 440.793C186.634 441.327 186.523 441.971 186.523 442.727V442.746C186.523 443.495 186.634 444.139 186.855 444.68C187.083 445.22 187.406 445.637 187.822 445.93C188.239 446.223 188.737 446.369 189.316 446.369ZM189.434 436.125V434.709H195.732V436.125H189.434ZM202.08 448.205C201.051 448.205 200.166 447.984 199.424 447.541C198.688 447.098 198.122 446.47 197.725 445.656C197.327 444.842 197.129 443.879 197.129 442.766V442.756C197.129 441.656 197.327 440.695 197.725 439.875C198.122 439.055 198.682 438.417 199.404 437.961C200.133 437.499 200.99 437.268 201.973 437.268C202.956 437.268 203.802 437.489 204.512 437.932C205.221 438.374 205.765 438.993 206.143 439.787C206.527 440.575 206.719 441.496 206.719 442.551V443.293H198.203V441.779H205.674L204.648 443.176V442.346C204.648 441.59 204.535 440.969 204.307 440.48C204.079 439.986 203.763 439.618 203.359 439.377C202.962 439.13 202.503 439.006 201.982 439.006C201.462 439.006 200.996 439.133 200.586 439.387C200.176 439.641 199.85 440.018 199.609 440.52C199.375 441.014 199.258 441.623 199.258 442.346V443.186C199.258 443.876 199.375 444.465 199.609 444.953C199.844 445.441 200.176 445.816 200.605 446.076C201.035 446.337 201.543 446.467 202.129 446.467C202.572 446.467 202.956 446.402 203.281 446.271C203.613 446.141 203.883 445.982 204.092 445.793C204.3 445.598 204.447 445.399 204.531 445.197L204.561 445.119H206.602L206.582 445.207C206.497 445.572 206.341 445.933 206.113 446.291C205.885 446.643 205.583 446.965 205.205 447.258C204.834 447.544 204.385 447.775 203.857 447.951C203.337 448.12 202.744 448.205 202.08 448.205ZM198.643 436.301L201.035 433.332H202.998L205.4 436.301H203.633L201.846 434.094H202.168L200.41 436.301H198.643ZM203.848 432.658L205.43 429.729H207.412L205.293 432.658H203.848ZM209.023 448V437.473H211.152V439.064H211.289C211.549 438.511 211.934 438.075 212.441 437.756C212.956 437.43 213.6 437.268 214.375 437.268C215.553 437.268 216.455 437.609 217.08 438.293C217.712 438.977 218.027 439.94 218.027 441.184V448H215.908V441.662C215.908 440.803 215.723 440.158 215.352 439.729C214.98 439.299 214.411 439.084 213.643 439.084C213.135 439.084 212.692 439.198 212.314 439.426C211.943 439.647 211.657 439.963 211.455 440.373C211.253 440.783 211.152 441.268 211.152 441.828V448H209.023ZM228.779 448L224.971 437.473H227.227L229.854 445.871H229.99L232.607 437.473H234.844L231.045 448H228.779ZM240.83 448.205C239.808 448.205 238.923 447.987 238.174 447.551C237.425 447.108 236.849 446.48 236.445 445.666C236.042 444.846 235.84 443.872 235.84 442.746V442.727C235.84 441.594 236.042 440.62 236.445 439.807C236.855 438.993 237.432 438.368 238.174 437.932C238.923 437.489 239.805 437.268 240.82 437.268C241.849 437.268 242.734 437.489 243.477 437.932C244.219 438.368 244.792 438.993 245.195 439.807C245.605 440.62 245.811 441.594 245.811 442.727V442.746C245.811 443.872 245.609 444.846 245.205 445.666C244.801 446.48 244.225 447.108 243.477 447.551C242.734 447.987 241.852 448.205 240.83 448.205ZM240.83 446.428C241.423 446.428 241.927 446.281 242.344 445.988C242.76 445.695 243.079 445.275 243.301 444.729C243.529 444.182 243.643 443.521 243.643 442.746V442.727C243.643 441.945 243.529 441.281 243.301 440.734C243.079 440.188 242.757 439.771 242.334 439.484C241.917 439.191 241.413 439.045 240.82 439.045C240.234 439.045 239.73 439.191 239.307 439.484C238.89 439.771 238.568 440.188 238.34 440.734C238.118 441.281 238.008 441.945 238.008 442.727V442.746C238.008 443.521 238.118 444.185 238.34 444.738C238.568 445.285 238.89 445.705 239.307 445.998C239.73 446.285 240.238 446.428 240.83 446.428ZM242.021 438.439L240.83 438.557V437.268C241.533 437.242 242.113 437.17 242.568 437.053C243.024 436.929 243.376 436.753 243.623 436.525C243.87 436.298 244.046 436.011 244.15 435.666C244.255 435.321 244.31 434.911 244.316 434.436H246.162C246.149 435.119 246.068 435.699 245.918 436.174C245.775 436.643 245.54 437.03 245.215 437.336C244.896 437.642 244.473 437.883 243.945 438.059C243.424 438.228 242.783 438.355 242.021 438.439ZM240.557 436.086H238.916L240.635 432.785H242.842L240.557 436.086ZM248.311 448V437.473H250.43V448H248.311ZM249.375 435.656C249.017 435.656 248.708 435.529 248.447 435.275C248.193 435.015 248.066 434.709 248.066 434.357C248.066 433.993 248.193 433.687 248.447 433.439C248.708 433.186 249.017 433.059 249.375 433.059C249.74 433.059 250.049 433.186 250.303 433.439C250.557 433.687 250.684 433.993 250.684 434.357C250.684 434.709 250.557 435.015 250.303 435.275C250.049 435.529 249.74 435.656 249.375 435.656ZM264.512 448.322C263.197 448.322 262.061 448.023 261.104 447.424C260.146 446.825 259.408 445.975 258.887 444.875C258.366 443.775 258.105 442.469 258.105 440.959V440.949C258.105 439.432 258.366 438.127 258.887 437.033C259.408 435.933 260.143 435.083 261.094 434.484C262.051 433.885 263.187 433.586 264.502 433.586C265.537 433.586 266.475 433.791 267.314 434.201C268.154 434.605 268.841 435.165 269.375 435.881C269.909 436.59 270.241 437.411 270.371 438.342V438.41H268.193L268.174 438.332C268.031 437.759 267.786 437.264 267.441 436.848C267.103 436.431 266.683 436.109 266.182 435.881C265.687 435.646 265.127 435.529 264.502 435.529C263.656 435.529 262.92 435.751 262.295 436.193C261.676 436.636 261.198 437.261 260.859 438.068C260.521 438.876 260.352 439.833 260.352 440.939V440.959C260.352 442.066 260.521 443.026 260.859 443.84C261.198 444.647 261.68 445.272 262.305 445.715C262.93 446.158 263.665 446.379 264.512 446.379C265.137 446.379 265.697 446.275 266.191 446.066C266.693 445.852 267.113 445.549 267.451 445.158C267.796 444.768 268.037 444.299 268.174 443.752L268.193 443.703H270.371V443.762C270.234 444.673 269.899 445.471 269.365 446.154C268.838 446.838 268.158 447.372 267.324 447.756C266.497 448.133 265.56 448.322 264.512 448.322ZM272.891 448V433.391H275.01V439.104H275.146C275.407 438.524 275.794 438.075 276.309 437.756C276.829 437.43 277.474 437.268 278.242 437.268C279.023 437.268 279.688 437.427 280.234 437.746C280.781 438.059 281.198 438.514 281.484 439.113C281.771 439.706 281.914 440.419 281.914 441.252V448H279.795V441.73C279.795 440.858 279.606 440.201 279.229 439.758C278.851 439.309 278.275 439.084 277.5 439.084C276.992 439.084 276.553 439.198 276.182 439.426C275.811 439.654 275.521 439.973 275.312 440.383C275.111 440.793 275.01 441.278 275.01 441.838V448H272.891ZM284.697 448V437.473H286.816V448H284.697ZM285.762 435.656C285.404 435.656 285.094 435.529 284.834 435.275C284.58 435.015 284.453 434.709 284.453 434.357C284.453 433.993 284.58 433.687 284.834 433.439C285.094 433.186 285.404 433.059 285.762 433.059C286.126 433.059 286.436 433.186 286.689 433.439C286.943 433.687 287.07 433.993 287.07 434.357C287.07 434.709 286.943 435.015 286.689 435.275C286.436 435.529 286.126 435.656 285.762 435.656ZM292.627 448.186C291.95 448.186 291.348 448.055 290.82 447.795C290.299 447.535 289.886 447.17 289.58 446.701C289.281 446.226 289.131 445.669 289.131 445.031V445.012C289.131 444.387 289.284 443.853 289.59 443.41C289.896 442.961 290.342 442.609 290.928 442.355C291.514 442.095 292.223 441.942 293.057 441.896L296.963 441.662V443.156L293.34 443.381C292.637 443.42 292.113 443.573 291.768 443.84C291.423 444.107 291.25 444.471 291.25 444.934V444.953C291.25 445.435 291.432 445.812 291.797 446.086C292.161 446.353 292.63 446.486 293.203 446.486C293.717 446.486 294.18 446.382 294.59 446.174C295 445.959 295.322 445.673 295.557 445.314C295.791 444.956 295.908 444.549 295.908 444.094V440.822C295.908 440.249 295.726 439.807 295.361 439.494C295.003 439.182 294.476 439.025 293.779 439.025C293.18 439.025 292.695 439.136 292.324 439.357C291.953 439.572 291.709 439.872 291.592 440.256L291.572 440.305H289.541L289.551 440.217C289.629 439.637 289.854 439.126 290.225 438.684C290.602 438.241 291.097 437.896 291.709 437.648C292.327 437.395 293.044 437.268 293.857 437.268C294.736 437.268 295.485 437.411 296.104 437.697C296.729 437.977 297.204 438.381 297.529 438.908C297.855 439.429 298.018 440.054 298.018 440.783V448H295.908V446.467H295.771C295.563 446.825 295.303 447.134 294.99 447.395C294.678 447.648 294.323 447.844 293.926 447.98C293.529 448.117 293.096 448.186 292.627 448.186ZM310.928 448.322C309.867 448.322 308.942 448.156 308.154 447.824C307.367 447.486 306.742 447.02 306.279 446.428C305.824 445.829 305.563 445.129 305.498 444.328L305.488 444.201H307.646L307.656 444.309C307.708 444.738 307.878 445.109 308.164 445.422C308.457 445.734 308.848 445.979 309.336 446.154C309.831 446.324 310.391 446.408 311.016 446.408C311.621 446.408 312.152 446.317 312.607 446.135C313.07 445.952 313.431 445.695 313.691 445.363C313.952 445.031 314.082 444.647 314.082 444.211V444.201C314.082 443.654 313.877 443.208 313.467 442.863C313.063 442.512 312.393 442.235 311.455 442.033L309.922 441.701C308.503 441.395 307.464 440.913 306.807 440.256C306.149 439.592 305.82 438.742 305.82 437.707V437.697C305.827 436.883 306.048 436.171 306.484 435.559C306.921 434.94 307.523 434.458 308.291 434.113C309.059 433.762 309.941 433.586 310.938 433.586C311.927 433.586 312.793 433.758 313.535 434.104C314.284 434.442 314.873 434.908 315.303 435.5C315.739 436.086 315.983 436.75 316.035 437.492L316.045 437.629H313.916L313.896 437.512C313.831 437.108 313.669 436.757 313.408 436.457C313.154 436.158 312.812 435.923 312.383 435.754C311.96 435.578 311.465 435.493 310.898 435.5C310.345 435.5 309.854 435.585 309.424 435.754C308.994 435.917 308.656 436.154 308.408 436.467C308.167 436.779 308.047 437.154 308.047 437.59V437.6C308.047 438.12 308.245 438.553 308.643 438.898C309.046 439.243 309.701 439.514 310.605 439.709L312.139 440.041C313.122 440.249 313.919 440.526 314.531 440.871C315.143 441.216 315.592 441.643 315.879 442.15C316.165 442.658 316.309 443.264 316.309 443.967V443.977C316.309 444.868 316.087 445.64 315.645 446.291C315.208 446.936 314.587 447.437 313.779 447.795C312.979 448.146 312.028 448.322 310.928 448.322ZM323.154 448.205C322.126 448.205 321.24 447.984 320.498 447.541C319.762 447.098 319.196 446.47 318.799 445.656C318.402 444.842 318.203 443.879 318.203 442.766V442.756C318.203 441.656 318.402 440.695 318.799 439.875C319.196 439.055 319.756 438.417 320.479 437.961C321.208 437.499 322.064 437.268 323.047 437.268C324.03 437.268 324.876 437.489 325.586 437.932C326.296 438.374 326.839 438.993 327.217 439.787C327.601 440.575 327.793 441.496 327.793 442.551V443.293H319.277V441.779H326.748L325.723 443.176V442.346C325.723 441.59 325.609 440.969 325.381 440.48C325.153 439.986 324.837 439.618 324.434 439.377C324.036 439.13 323.577 439.006 323.057 439.006C322.536 439.006 322.07 439.133 321.66 439.387C321.25 439.641 320.924 440.018 320.684 440.52C320.449 441.014 320.332 441.623 320.332 442.346V443.186C320.332 443.876 320.449 444.465 320.684 444.953C320.918 445.441 321.25 445.816 321.68 446.076C322.109 446.337 322.617 446.467 323.203 446.467C323.646 446.467 324.03 446.402 324.355 446.271C324.688 446.141 324.958 445.982 325.166 445.793C325.374 445.598 325.521 445.399 325.605 445.197L325.635 445.119H327.676L327.656 445.207C327.572 445.572 327.415 445.933 327.188 446.291C326.96 446.643 326.657 446.965 326.279 447.258C325.908 447.544 325.459 447.775 324.932 447.951C324.411 448.12 323.818 448.205 323.154 448.205ZM322.256 436.086V435.988C322.588 435.747 322.839 435.523 323.008 435.314C323.177 435.1 323.262 434.895 323.262 434.699C323.262 434.445 323.125 434.25 322.852 434.113C322.585 433.977 322.246 433.908 321.836 433.908C321.66 433.908 321.507 433.918 321.377 433.938C321.247 433.951 321.133 433.967 321.035 433.986V432.756C321.159 432.71 321.338 432.668 321.572 432.629C321.807 432.583 322.061 432.561 322.334 432.561C323.024 432.561 323.61 432.733 324.092 433.078C324.58 433.423 324.824 433.859 324.824 434.387C324.824 434.719 324.727 435.021 324.531 435.295C324.336 435.562 324.049 435.826 323.672 436.086H322.256ZM339.014 448V435.803H334.619V433.908H345.605V435.803H341.211V448H339.014ZM347.627 448V437.473H349.746V448H347.627ZM348.691 435.656C348.333 435.656 348.024 435.529 347.764 435.275C347.51 435.015 347.383 434.709 347.383 434.357C347.383 433.993 347.51 433.687 347.764 433.439C348.024 433.186 348.333 433.059 348.691 433.059C349.056 433.059 349.365 433.186 349.619 433.439C349.873 433.687 350 433.993 350 434.357C350 434.709 349.873 435.015 349.619 435.275C349.365 435.529 349.056 435.656 348.691 435.656ZM357.061 448.205C356.032 448.205 355.146 447.984 354.404 447.541C353.669 447.098 353.102 446.47 352.705 445.656C352.308 444.842 352.109 443.879 352.109 442.766V442.756C352.109 441.656 352.308 440.695 352.705 439.875C353.102 439.055 353.662 438.417 354.385 437.961C355.114 437.499 355.97 437.268 356.953 437.268C357.936 437.268 358.783 437.489 359.492 437.932C360.202 438.374 360.745 438.993 361.123 439.787C361.507 440.575 361.699 441.496 361.699 442.551V443.293H353.184V441.779H360.654L359.629 443.176V442.346C359.629 441.59 359.515 440.969 359.287 440.48C359.059 439.986 358.743 439.618 358.34 439.377C357.943 439.13 357.484 439.006 356.963 439.006C356.442 439.006 355.977 439.133 355.566 439.387C355.156 439.641 354.831 440.018 354.59 440.52C354.355 441.014 354.238 441.623 354.238 442.346V443.186C354.238 443.876 354.355 444.465 354.59 444.953C354.824 445.441 355.156 445.816 355.586 446.076C356.016 446.337 356.523 446.467 357.109 446.467C357.552 446.467 357.936 446.402 358.262 446.271C358.594 446.141 358.864 445.982 359.072 445.793C359.281 445.598 359.427 445.399 359.512 445.197L359.541 445.119H361.582L361.562 445.207C361.478 445.572 361.322 445.933 361.094 446.291C360.866 446.643 360.563 446.965 360.186 447.258C359.814 447.544 359.365 447.775 358.838 447.951C358.317 448.12 357.725 448.205 357.061 448.205ZM353.281 436.301L355.674 433.332H357.637L360.039 436.301H358.271L356.484 434.094H356.807L355.049 436.301H353.281ZM358.916 432.658L356.797 429.729H358.779L360.352 432.658H358.916ZM364.004 448V437.473H366.133V439.064H366.27C366.53 438.511 366.914 438.075 367.422 437.756C367.936 437.43 368.581 437.268 369.355 437.268C370.534 437.268 371.436 437.609 372.061 438.293C372.692 438.977 373.008 439.94 373.008 441.184V448H370.889V441.662C370.889 440.803 370.703 440.158 370.332 439.729C369.961 439.299 369.391 439.084 368.623 439.084C368.115 439.084 367.673 439.198 367.295 439.426C366.924 439.647 366.637 439.963 366.436 440.373C366.234 440.783 366.133 441.268 366.133 441.828V448H364.004ZM384.658 448V435.803H380.264V433.908H391.25V435.803H386.855V448H384.658ZM392.012 448V437.473H394.141V439.113H394.277C394.46 438.534 394.782 438.085 395.244 437.766C395.706 437.447 396.276 437.287 396.953 437.287C397.122 437.287 397.285 437.297 397.441 437.316C397.604 437.336 397.734 437.355 397.832 437.375V439.338C397.669 439.299 397.497 439.27 397.314 439.25C397.132 439.224 396.94 439.211 396.738 439.211C396.217 439.211 395.762 439.315 395.371 439.523C394.98 439.725 394.678 440.015 394.463 440.393C394.248 440.764 394.141 441.203 394.141 441.711V448H392.012ZM403.857 448.205C402.835 448.205 401.95 447.987 401.201 447.551C400.452 447.108 399.876 446.48 399.473 445.666C399.069 444.846 398.867 443.872 398.867 442.746V442.727C398.867 441.594 399.069 440.62 399.473 439.807C399.883 438.993 400.459 438.368 401.201 437.932C401.95 437.489 402.832 437.268 403.848 437.268C404.876 437.268 405.762 437.489 406.504 437.932C407.246 438.368 407.819 438.993 408.223 439.807C408.633 440.62 408.838 441.594 408.838 442.727V442.746C408.838 443.872 408.636 444.846 408.232 445.666C407.829 446.48 407.253 447.108 406.504 447.551C405.762 447.987 404.88 448.205 403.857 448.205ZM403.857 446.428C404.45 446.428 404.954 446.281 405.371 445.988C405.788 445.695 406.107 445.275 406.328 444.729C406.556 444.182 406.67 443.521 406.67 442.746V442.727C406.67 441.945 406.556 441.281 406.328 440.734C406.107 440.188 405.785 439.771 405.361 439.484C404.945 439.191 404.44 439.045 403.848 439.045C403.262 439.045 402.757 439.191 402.334 439.484C401.917 439.771 401.595 440.188 401.367 440.734C401.146 441.281 401.035 441.945 401.035 442.727V442.746C401.035 443.521 401.146 444.185 401.367 444.738C401.595 445.285 401.917 445.705 402.334 445.998C402.757 446.285 403.265 446.428 403.857 446.428ZM403.857 452.355C403.506 452.355 403.2 452.229 402.939 451.975C402.686 451.721 402.559 451.418 402.559 451.066C402.559 450.708 402.686 450.406 402.939 450.158C403.2 449.911 403.506 449.787 403.857 449.787C404.215 449.787 404.518 449.911 404.766 450.158C405.02 450.406 405.146 450.708 405.146 451.066C405.146 451.418 405.02 451.721 404.766 451.975C404.518 452.229 404.215 452.355 403.857 452.355Z" fill="#6B9AAF"/>
<g clip-path="url(#clip1_247_17)">
<path d="M413 92H19V388H413V92Z" fill="white"/>
<path d="M386.583 253.836C384.403 225.069 368.116 199.669 350.036 178.165C341.474 167.982 332.453 158.085 323.104 148.62C312.682 138.068 301.76 128.438 288.591 121.459C275.445 114.493 260.014 111.792 245.342 114.547C229.281 117.564 215.177 125.564 201.458 134.08C173.885 151.197 146.557 168.724 119.114 186.05C107.056 193.664 94.6795 200.957 83.2158 209.465C77.3153 213.844 71.8952 218.667 66.7932 223.955C61.7093 229.224 57.6294 234.995 54.0581 241.38C46.2999 255.252 44.26 271.652 45.44 287.311C46.627 303.061 51.7674 318.444 57.9578 332.875C59.7275 337.001 71.0993 358.516 73.9729 359.699C76.2039 360.617 339.189 366.347 345.842 362.831C353.066 359.015 359.201 353.548 363.484 346.542C367.308 340.287 370.107 333.706 372.487 326.792C374.974 319.566 377.407 312.311 379.563 304.978C384.473 288.268 387.911 271.343 386.583 253.836Z" fill="#D3E5F1"/>
<path d="M215.047 375.067C308.57 375.067 384.385 368.509 384.385 360.418C384.385 352.328 308.57 345.769 215.047 345.769C121.524 345.769 45.7092 352.328 45.7092 360.418C45.7092 368.509 121.524 375.067 215.047 375.067Z" fill="#4B8AB7"/>
<path d="M320.411 331.841H311.381C310.366 331.841 309.535 331.009 309.535 329.993V320.947C309.535 319.93 310.366 319.098 311.381 319.098H320.411C321.426 319.098 322.257 319.931 322.257 320.947V329.993C322.257 331.009 321.426 331.841 320.411 331.841Z" fill="#B7D2E5"/>
<path d="M315.896 328.9C317.787 328.9 319.32 327.365 319.32 325.47C319.32 323.576 317.787 322.04 315.896 322.04C314.005 322.04 312.471 323.576 312.471 325.47C312.471 327.365 314.005 328.9 315.896 328.9Z" fill="#9ABFDB"/>
<path d="M314.015 325.47C314.015 325.244 314.198 325.062 314.423 325.062C314.648 325.062 314.831 325.244 314.831 325.47C314.831 325.696 314.648 325.878 314.423 325.878C314.198 325.878 314.015 325.696 314.015 325.47Z" fill="#B7D2E5"/>
<path d="M317.369 325.878C317.594 325.878 317.777 325.696 317.777 325.47C317.777 325.244 317.594 325.062 317.369 325.062C317.144 325.062 316.961 325.244 316.961 325.47C316.961 325.696 317.144 325.878 317.369 325.878Z" fill="#B7D2E5"/>
<path d="M304.003 331.841H294.973C293.958 331.841 293.128 331.009 293.128 329.993V320.947C293.128 319.93 293.958 319.098 294.973 319.098H304.003C305.019 319.098 305.849 319.931 305.849 320.947V329.993C305.849 331.009 305.019 331.841 304.003 331.841Z" fill="#B7D2E5"/>
<path d="M299.488 328.9C301.38 328.9 302.913 327.365 302.913 325.47C302.913 323.575 301.38 322.04 299.488 322.04C297.597 322.04 296.064 323.575 296.064 325.47C296.064 327.365 297.597 328.9 299.488 328.9Z" fill="#5A95BD"/>
<path d="M298.109 325.867C298.289 325.824 298.424 325.663 298.424 325.47C298.424 325.244 298.241 325.061 298.016 325.061C297.89 325.061 297.778 325.12 297.703 325.211C297.697 325.202 297.692 325.194 297.686 325.185C297.35 324.695 296.626 325.269 296.962 325.758C300.333 330.677 297.304 337.865 292.113 340.076C285.848 342.745 278.385 339.429 274.779 334.003C273.776 332.493 273.046 330.772 272.75 328.978C272.427 327.018 272.751 325.063 272.803 323.097C272.85 321.287 272.6 319.581 271.684 317.997C270.813 316.491 269.609 315.194 268.94 313.571C267.523 310.133 268.346 306.243 268.917 302.712C269.492 299.166 269.734 295.606 269.498 292.016C268.973 284.028 266.287 276.232 261.774 269.627C261.439 269.136 260.715 269.71 261.05 270.2C265.399 276.567 267.984 284.068 268.557 291.759C268.846 295.631 268.519 299.43 267.894 303.252C267.297 306.909 266.635 310.927 268.303 314.411C269.089 316.053 270.395 317.374 271.183 319.011C272.125 320.969 271.892 323.127 271.753 325.224C271.63 327.079 271.669 328.875 272.2 330.67C272.705 332.377 273.558 333.975 274.633 335.39C278.584 340.587 285.999 343.543 292.269 341.011C297.92 338.73 301.176 331.313 298.109 325.867Z" fill="#5A95BD"/>
<path d="M300.554 325.47C300.554 325.244 300.736 325.062 300.962 325.062C301.187 325.062 301.369 325.244 301.369 325.47C301.369 325.696 301.187 325.878 300.962 325.878C300.736 325.878 300.554 325.696 300.554 325.47Z" fill="#5A95BD"/>
<path d="M86.5831 343.074C85.6392 343.074 84.8669 342.301 84.8669 341.355V317.37C84.8669 316.424 85.6392 315.651 86.5831 315.651C87.5271 315.651 88.2993 316.424 88.2993 317.37V341.355C88.2993 342.301 87.5268 343.074 86.5831 343.074Z" fill="#507087"/>
<path d="M85.8477 343.074C84.9037 343.074 84.1315 342.301 84.1315 341.355V317.37C84.1315 316.424 84.9037 315.651 85.8477 315.651C86.7916 315.651 87.5639 316.424 87.5639 317.37V341.355C87.5635 342.301 86.7913 343.074 85.8477 343.074Z" fill="#6F8EAA"/>
<path d="M92.3687 343.074C91.4247 343.074 90.6525 342.301 90.6525 341.355V317.37C90.6525 316.424 91.4247 315.651 92.3687 315.651C93.3126 315.651 94.0849 316.424 94.0849 317.37V341.355C94.0849 342.301 93.3126 343.074 92.3687 343.074Z" fill="#507087"/>
<path d="M91.6336 343.074C90.6896 343.074 89.9174 342.301 89.9174 341.355V317.37C89.9174 316.424 90.6896 315.651 91.6336 315.651C92.5775 315.651 93.3498 316.424 93.3498 317.37V341.355C93.3494 342.301 92.5772 343.074 91.6336 343.074Z" fill="#6F8EAA"/>
<path d="M98.1546 343.074C97.2106 343.074 96.4384 342.301 96.4384 341.355V317.37C96.4384 316.424 97.2106 315.651 98.1546 315.651C99.0985 315.651 99.8708 316.424 99.8708 317.37V341.355C99.8708 342.301 99.0985 343.074 98.1546 343.074Z" fill="#507087"/>
<path d="M97.4191 343.074C96.4751 343.074 95.7029 342.301 95.7029 341.355V317.37C95.7029 316.424 96.4751 315.651 97.4191 315.651C98.363 315.651 99.1353 316.424 99.1353 317.37V341.355C99.1353 342.301 98.363 343.074 97.4191 343.074Z" fill="#6F8EAA"/>
<path d="M103.94 343.074C102.996 343.074 102.224 342.301 102.224 341.355V317.37C102.224 316.424 102.996 315.651 103.94 315.651C104.884 315.651 105.657 316.424 105.657 317.37V341.355C105.657 342.301 104.884 343.074 103.94 343.074Z" fill="#6F8EAA"/>
<path d="M103.205 343.074C102.261 343.074 101.489 342.301 101.489 341.355V317.37C101.489 316.424 102.261 315.651 103.205 315.651C104.149 315.651 104.921 316.424 104.921 317.37V341.355C104.921 342.301 104.149 343.074 103.205 343.074Z" fill="#6F8EAA"/>
<path d="M121.004 343.074C121.948 343.074 122.72 342.301 122.72 341.355V317.37C122.72 316.424 121.948 315.651 121.004 315.651C120.06 315.651 119.288 316.424 119.288 317.37V341.355C119.288 342.301 120.06 343.074 121.004 343.074Z" fill="#507087"/>
<path d="M121.739 343.074C122.683 343.074 123.456 342.301 123.456 341.355V317.37C123.456 316.424 122.683 315.651 121.739 315.651C120.795 315.651 120.023 316.424 120.023 317.37V341.355C120.023 342.301 120.795 343.074 121.739 343.074Z" fill="#6F8EAA"/>
<path d="M115.218 343.074C116.162 343.074 116.934 342.301 116.934 341.355V317.37C116.934 316.424 116.162 315.651 115.218 315.651C114.274 315.651 113.502 316.424 113.502 317.37V341.355C113.502 342.301 114.274 343.074 115.218 343.074Z" fill="#507087"/>
<path d="M115.954 343.074C116.897 343.074 117.67 342.301 117.67 341.355V317.37C117.67 316.424 116.897 315.651 115.954 315.651C115.01 315.651 114.237 316.424 114.237 317.37V341.355C114.237 342.301 115.01 343.074 115.954 343.074Z" fill="#6F8EAA"/>
<path d="M108.991 343.074C109.935 343.074 110.707 342.301 110.707 341.355V317.37C110.707 316.424 109.935 315.651 108.991 315.651C108.047 315.651 107.275 316.424 107.275 317.37V341.355C107.275 342.301 108.047 343.074 108.991 343.074Z" fill="#507087"/>
<path d="M109.726 343.074C110.67 343.074 111.443 342.301 111.443 341.355V317.37C111.443 316.424 110.67 315.651 109.726 315.651C108.782 315.651 108.01 316.424 108.01 317.37V341.355C108.01 342.301 108.782 343.074 109.726 343.074Z" fill="#6F8EAA"/>
<path d="M123.478 339.811H84.1709V350.984H123.478V339.811Z" fill="#6F8EAA"/>
<path d="M123.478 308.266H84.1709V319.26H123.478V308.266Z" fill="#6F8EAA"/>
<path d="M103.825 354.306C114.679 354.306 123.478 352.857 123.478 351.07C123.478 349.284 114.679 347.835 103.825 347.835C92.9702 347.835 84.1709 349.284 84.1709 351.07C84.1709 352.857 92.9702 354.306 103.825 354.306Z" fill="#6F8EAA"/>
<path d="M103.824 311.621C114.679 311.621 123.478 310.173 123.478 308.386C123.478 306.599 114.679 305.151 103.824 305.151C92.97 305.151 84.1708 306.599 84.1708 308.386C84.1708 310.173 92.97 311.621 103.824 311.621Z" fill="#6F8EAA"/>
<path d="M103.825 310.192C114.045 310.192 122.331 309.25 122.331 308.088C122.331 306.925 114.045 305.983 103.825 305.983C93.6039 305.983 85.3184 306.925 85.3184 308.088C85.3184 309.25 93.6039 310.192 103.825 310.192Z" fill="#507087"/>
<path d="M123.478 319.26V308.265H123.463C123.159 306.9 117.718 305.751 110.227 305.326C110.216 308.985 110.146 312.643 110.005 316.299C109.514 329.025 108.211 341.724 106.097 354.284C115.881 354.098 123.478 352.731 123.478 351.07C123.478 351.041 123.475 351.013 123.471 350.984H123.478V339.811H123.455V319.26H123.478ZM113.502 339.811H111.443V319.26H113.502V339.811ZM119.288 339.811H117.67V319.26H119.288V339.811Z" fill="#507087"/>
<path d="M299.488 278.02L299.487 278.032L298.976 283.116L298.715 285.716L298.418 288.662L291.76 354.842C291.697 355.47 291.168 355.949 290.535 355.949H288.455C287.759 355.949 287.203 355.375 287.224 354.678L289.31 288.661L289.402 285.715L289.484 283.116L289.645 278.032V278.02H299.488Z" fill="white"/>
<path d="M340.013 354.678C340.036 355.374 339.48 355.949 338.784 355.949H336.702C336.07 355.949 335.541 355.47 335.477 354.841L328.821 288.661L328.524 285.715L328.263 283.116L327.752 278.031L327.75 278.019H337.594V278.031L337.755 283.116L337.837 285.715L337.929 288.661L340.013 354.678Z" fill="white"/>
<path d="M289.645 278.032H299.487L298.976 283.116L298.715 285.715H289.402L289.484 283.116L289.645 278.032Z" fill="#FEEDED"/>
<path d="M337.837 285.715H328.524L328.263 283.116L327.752 278.032H337.594L337.755 283.116L337.837 285.715Z" fill="#FEEDED"/>
<path d="M107.277 355.95H105.195C104.5 355.95 103.943 355.374 103.965 354.678L106.386 278.02H116.229L108.501 354.841C108.438 355.47 107.908 355.95 107.277 355.95Z" fill="#FEEDED"/>
<path d="M153.443 355.95H155.525C156.22 355.95 156.777 355.374 156.755 354.678L154.334 278.02H144.49L152.219 354.841C152.282 355.47 152.811 355.95 153.443 355.95Z" fill="#FEEDED"/>
<path d="M104.539 278.495H337.6C338.959 278.495 340.061 277.391 340.061 276.03V266.463C340.061 264.613 338.549 263.099 336.702 263.099H105.437C103.59 263.099 102.078 264.613 102.078 266.463V276.03C102.078 277.385 103.185 278.495 104.539 278.495Z" fill="#F2B263"/>
<path d="M344.953 261.823H325.046H117.093H97.1866C95.6136 261.823 94.3265 263.122 94.3265 264.71V270.51C94.3265 272.098 95.6136 273.398 97.187 273.398H116.517H325.623H344.953C346.526 273.398 347.814 272.098 347.814 270.51V264.71C347.813 263.122 346.526 261.823 344.953 261.823Z" fill="#FFE989"/>
<path d="M347.199 261.823H286.666V273.398H347.199C348.533 273.398 349.614 272.461 349.614 271.305V263.916C349.614 262.76 348.533 261.823 347.199 261.823Z" fill="#F2B263"/>
<path d="M247.187 229.419H229.476V261.063H247.187V229.419Z" fill="#9ABFDB"/>
<path d="M286.212 246.019H195.223V188.656H286.212C287.452 188.656 288.457 189.663 288.457 190.905V243.77C288.457 245.012 287.452 246.019 286.212 246.019Z" fill="#B7D2E5"/>
<path d="M257.41 262.047H219.253C218.013 262.047 217.007 261.04 217.007 259.798V258.954C217.007 257.712 218.013 256.705 219.253 256.705H257.41C258.65 256.705 259.656 257.712 259.656 258.954V259.798C259.656 261.04 258.65 262.047 257.41 262.047Z" fill="white"/>
<path d="M282.703 246.019H193.96C192.719 246.019 191.714 245.012 191.714 243.77V190.905C191.714 189.663 192.719 188.656 193.96 188.656H282.703C283.943 188.656 284.949 189.663 284.949 190.905V243.77C284.948 245.012 283.943 246.019 282.703 246.019Z" fill="white"/>
<path d="M280 237.385H196.663C195.59 237.385 194.72 236.514 194.72 235.439V193.45C194.72 192.375 195.59 191.504 196.663 191.504H280C281.073 191.504 281.943 192.375 281.943 193.45V235.439C281.942 236.514 281.073 237.385 280 237.385Z" fill="#6F8EAA"/>
<path d="M248.493 234.001H200.234C199.292 234.001 198.522 233.229 198.522 232.286V196.838C198.522 195.895 199.292 195.123 200.234 195.123H248.493C249.434 195.123 250.205 195.895 250.205 196.838V232.286C250.205 233.229 249.434 234.001 248.493 234.001Z" fill="#D9DBEE"/>
<path d="M250.205 196.839V197.795H198.523V196.839C198.523 195.895 199.292 195.123 200.234 195.123H248.492C249.434 195.123 250.205 195.895 250.205 196.839Z" fill="#A8B9D5"/>
<path d="M200.073 196.459C200.073 196.2 200.282 195.99 200.541 195.99C200.799 195.99 201.009 196.2 201.009 196.459C201.009 196.718 200.799 196.928 200.541 196.928C200.282 196.928 200.073 196.718 200.073 196.459Z" fill="#D9DBEE"/>
<path d="M201.76 196.459C201.76 196.2 201.969 195.99 202.228 195.99C202.486 195.99 202.696 196.2 202.696 196.459C202.696 196.718 202.486 196.928 202.228 196.928C201.969 196.928 201.76 196.718 201.76 196.459Z" fill="#D9DBEE"/>
<path d="M203.447 196.459C203.447 196.2 203.657 195.99 203.915 195.99C204.174 195.99 204.383 196.2 204.383 196.459C204.383 196.718 204.174 196.928 203.915 196.928C203.657 196.928 203.447 196.718 203.447 196.459Z" fill="#D9DBEE"/>
<path d="M209.938 231.126H200.814C200.19 231.126 199.679 230.614 199.679 229.989V200.029C199.679 199.404 200.19 198.893 200.814 198.893H209.938C210.561 198.893 211.072 199.404 211.072 200.029V229.989C211.072 230.614 210.561 231.126 209.938 231.126Z" fill="#A8B9D5"/>
<path d="M202.621 202.199H200.899C200.715 202.199 200.563 202.048 200.563 201.863V200.137C200.563 199.953 200.714 199.802 200.899 199.802H202.621C202.806 199.802 202.957 199.953 202.957 200.137V201.863C202.956 202.048 202.806 202.199 202.621 202.199Z" fill="#D9DBEE"/>
<path d="M202.621 205.621H200.899C200.715 205.621 200.563 205.47 200.563 205.285V203.56C200.563 203.375 200.714 203.224 200.899 203.224H202.621C202.806 203.224 202.957 203.375 202.957 203.56V205.285C202.956 205.47 202.806 205.621 202.621 205.621Z" fill="#D9DBEE"/>
<path d="M202.621 209.044H200.899C200.715 209.044 200.563 208.893 200.563 208.708V206.982C200.563 206.798 200.714 206.646 200.899 206.646H202.621C202.806 206.646 202.957 206.797 202.957 206.982V208.708C202.956 208.893 202.806 209.044 202.621 209.044Z" fill="#D9DBEE"/>
<path d="M202.621 212.466H200.899C200.715 212.466 200.563 212.315 200.563 212.13V210.405C200.563 210.22 200.714 210.069 200.899 210.069H202.621C202.806 210.069 202.957 210.22 202.957 210.405V212.13C202.956 212.315 202.806 212.466 202.621 212.466Z" fill="#D9DBEE"/>
<path d="M202.621 215.888H200.899C200.715 215.888 200.563 215.738 200.563 215.553V213.827C200.563 213.643 200.714 213.491 200.899 213.491H202.621C202.806 213.491 202.957 213.642 202.957 213.827V215.553C202.956 215.738 202.806 215.888 202.621 215.888Z" fill="#D9DBEE"/>
<path d="M202.621 219.311H200.899C200.715 219.311 200.563 219.16 200.563 218.975V217.249C200.563 217.065 200.714 216.914 200.899 216.914H202.621C202.806 216.914 202.957 217.065 202.957 217.249V218.975C202.956 219.16 202.806 219.311 202.621 219.311Z" fill="#D9DBEE"/>
<path d="M202.621 222.733H200.899C200.715 222.733 200.563 222.582 200.563 222.398V220.672C200.563 220.487 200.714 220.336 200.899 220.336H202.621C202.806 220.336 202.957 220.487 202.957 220.672V222.398C202.956 222.582 202.806 222.733 202.621 222.733Z" fill="#D9DBEE"/>
<path d="M202.621 226.156H200.899C200.715 226.156 200.563 226.005 200.563 225.82V224.094C200.563 223.91 200.714 223.758 200.899 223.758H202.621C202.806 223.758 202.957 223.909 202.957 224.094V225.82C202.956 226.005 202.806 226.156 202.621 226.156Z" fill="#D9DBEE"/>
<path d="M202.621 229.578H200.899C200.715 229.578 200.563 229.428 200.563 229.243V227.517C200.563 227.333 200.714 227.181 200.899 227.181H202.621C202.806 227.181 202.957 227.332 202.957 227.517V229.243C202.956 229.427 202.806 229.578 202.621 229.578Z" fill="#D9DBEE"/>
<path d="M208.35 200.663H204.27C204.075 200.663 203.915 200.503 203.915 200.307C203.915 200.111 204.075 199.952 204.27 199.952H208.35C208.545 199.952 208.705 200.111 208.705 200.307C208.705 200.503 208.545 200.663 208.35 200.663Z" fill="#D9DBEE"/>
<path d="M208.35 202.049H204.27C204.075 202.049 203.915 201.889 203.915 201.694C203.915 201.498 204.075 201.338 204.27 201.338H208.35C208.545 201.338 208.705 201.498 208.705 201.694C208.705 201.889 208.545 202.049 208.35 202.049Z" fill="#D9DBEE"/>
<path d="M208.35 204.085H204.27C204.075 204.085 203.915 203.925 203.915 203.729C203.915 203.534 204.075 203.374 204.27 203.374H208.35C208.545 203.374 208.705 203.534 208.705 203.729C208.705 203.925 208.545 204.085 208.35 204.085Z" fill="#D9DBEE"/>
<path d="M206.582 205.472H204.27C204.074 205.472 203.915 205.312 203.915 205.116C203.915 204.921 204.074 204.761 204.27 204.761H206.582C206.778 204.761 206.937 204.92 206.937 205.116C206.937 205.312 206.778 205.472 206.582 205.472Z" fill="#D9DBEE"/>
<path d="M208.35 207.507H204.27C204.075 207.507 203.915 207.348 203.915 207.152C203.915 206.956 204.075 206.796 204.27 206.796H208.35C208.545 206.796 208.705 206.956 208.705 207.152C208.705 207.348 208.545 207.507 208.35 207.507Z" fill="#D9DBEE"/>
<path d="M208.35 208.894H204.27C204.075 208.894 203.915 208.734 203.915 208.538C203.915 208.343 204.075 208.183 204.27 208.183H208.35C208.545 208.183 208.705 208.343 208.705 208.538C208.705 208.734 208.545 208.894 208.35 208.894Z" fill="#D9DBEE"/>
<path d="M205.367 210.93H204.27C204.074 210.93 203.915 210.771 203.915 210.574C203.915 210.378 204.074 210.219 204.27 210.219H205.367C205.563 210.219 205.722 210.378 205.722 210.574C205.722 210.771 205.563 210.93 205.367 210.93Z" fill="#D9DBEE"/>
<path d="M207.684 210.93H206.586C206.39 210.93 206.231 210.771 206.231 210.574C206.231 210.378 206.39 210.219 206.586 210.219H207.684C207.88 210.219 208.038 210.378 208.038 210.574C208.038 210.771 207.88 210.93 207.684 210.93Z" fill="#D9DBEE"/>
<path d="M208.35 212.316H204.27C204.075 212.316 203.915 212.157 203.915 211.961C203.915 211.766 204.075 211.605 204.27 211.605H208.35C208.545 211.605 208.705 211.766 208.705 211.961C208.705 212.157 208.545 212.316 208.35 212.316Z" fill="#D9DBEE"/>
<path d="M205.367 224.62H204.27C204.074 224.62 203.915 224.461 203.915 224.264C203.915 224.068 204.074 223.909 204.27 223.909H205.367C205.563 223.909 205.722 224.068 205.722 224.264C205.722 224.461 205.563 224.62 205.367 224.62Z" fill="#D9DBEE"/>
<path d="M207.684 224.62H206.586C206.39 224.62 206.231 224.461 206.231 224.264C206.231 224.068 206.39 223.909 206.586 223.909H207.684C207.88 223.909 208.038 224.068 208.038 224.264C208.038 224.461 207.88 224.62 207.684 224.62Z" fill="#D9DBEE"/>
<path d="M208.35 226.006H204.27C204.075 226.006 203.915 225.846 203.915 225.651C203.915 225.455 204.075 225.295 204.27 225.295H208.35C208.545 225.295 208.705 225.455 208.705 225.651C208.705 225.846 208.545 226.006 208.35 226.006Z" fill="#D9DBEE"/>
<path d="M208.35 214.352H204.27C204.075 214.352 203.915 214.192 203.915 213.997C203.915 213.801 204.075 213.641 204.27 213.641H208.35C208.545 213.641 208.705 213.801 208.705 213.997C208.705 214.192 208.545 214.352 208.35 214.352Z" fill="#D9DBEE"/>
<path d="M208.35 215.739H204.27C204.075 215.739 203.915 215.579 203.915 215.383C203.915 215.188 204.075 215.028 204.27 215.028H208.35C208.545 215.028 208.705 215.188 208.705 215.383C208.705 215.579 208.545 215.739 208.35 215.739Z" fill="#D9DBEE"/>
<path d="M208.35 217.775H204.27C204.075 217.775 203.915 217.615 203.915 217.419C203.915 217.223 204.075 217.064 204.27 217.064H208.35C208.545 217.064 208.705 217.223 208.705 217.419C208.705 217.615 208.545 217.775 208.35 217.775Z" fill="#D9DBEE"/>
<path d="M206.759 219.161H204.27C204.075 219.161 203.915 219.001 203.915 218.806C203.915 218.61 204.075 218.45 204.27 218.45H206.759C206.954 218.45 207.114 218.61 207.114 218.806C207.114 219.001 206.954 219.161 206.759 219.161Z" fill="#D9DBEE"/>
<path d="M208.35 221.197H204.27C204.075 221.197 203.915 221.037 203.915 220.842C203.915 220.646 204.075 220.486 204.27 220.486H208.35C208.545 220.486 208.705 220.646 208.705 220.842C208.705 221.037 208.545 221.197 208.35 221.197Z" fill="#D9DBEE"/>
<path d="M208.35 222.584H204.27C204.075 222.584 203.915 222.424 203.915 222.228C203.915 222.033 204.075 221.873 204.27 221.873H208.35C208.545 221.873 208.705 222.032 208.705 222.228C208.705 222.424 208.545 222.584 208.35 222.584Z" fill="#D9DBEE"/>
<path d="M208.35 228.042H204.27C204.075 228.042 203.915 227.882 203.915 227.687C203.915 227.491 204.075 227.331 204.27 227.331H208.35C208.545 227.331 208.705 227.491 208.705 227.687C208.705 227.882 208.545 228.042 208.35 228.042Z" fill="#D9DBEE"/>
<path d="M208.35 229.429H204.27C204.075 229.429 203.915 229.269 203.915 229.073C203.915 228.878 204.075 228.718 204.27 228.718H208.35C208.545 228.718 208.705 228.878 208.705 229.073C208.705 229.269 208.545 229.429 208.35 229.429Z" fill="#D9DBEE"/>
<path d="M213.22 228.042C213.027 228.042 212.869 227.884 212.869 227.691V199.244C212.869 199.051 213.027 198.893 213.22 198.893C213.413 198.893 213.571 199.051 213.571 199.244V227.691C213.571 227.884 213.413 228.042 213.22 228.042Z" fill="#A8B9D5"/>
<path d="M232.109 211.841H226.055C225.834 211.841 225.653 211.66 225.653 211.438C225.653 211.217 225.834 211.036 226.055 211.036H232.109C232.329 211.036 232.51 211.217 232.51 211.438C232.51 211.66 232.33 211.841 232.109 211.841Z" fill="#A8B9D5"/>
<path d="M219.652 211.841H216.078C215.857 211.841 215.676 211.66 215.676 211.438C215.676 211.217 215.857 211.036 216.078 211.036H219.652C219.873 211.036 220.054 211.217 220.054 211.438C220.054 211.66 219.873 211.841 219.652 211.841Z" fill="#A8B9D5"/>
<path d="M224.58 211.841H221.005C220.784 211.841 220.603 211.66 220.603 211.438C220.603 211.217 220.784 211.036 221.005 211.036H224.58C224.8 211.036 224.981 211.217 224.981 211.438C224.981 211.66 224.8 211.841 224.58 211.841Z" fill="#A8B9D5"/>
<path d="M222.131 207.855H216.078C215.857 207.855 215.676 207.674 215.676 207.453C215.676 207.232 215.857 207.051 216.078 207.051H222.131C222.352 207.051 222.533 207.232 222.533 207.453C222.533 207.674 222.352 207.855 222.131 207.855Z" fill="#A8B9D5"/>
<path d="M230.255 207.855H226.68C226.46 207.855 226.279 207.674 226.279 207.453C226.279 207.232 226.459 207.051 226.68 207.051H230.255C230.476 207.051 230.657 207.232 230.657 207.453C230.656 207.674 230.476 207.855 230.255 207.855Z" fill="#A8B9D5"/>
<path d="M235.182 207.855H231.607C231.387 207.855 231.206 207.674 231.206 207.453C231.206 207.232 231.386 207.051 231.607 207.051H235.182C235.403 207.051 235.584 207.232 235.584 207.453C235.584 207.674 235.403 207.855 235.182 207.855Z" fill="#A8B9D5"/>
<path d="M225.252 207.855H223.423C223.202 207.855 223.021 207.674 223.021 207.453C223.021 207.232 223.202 207.051 223.423 207.051H225.252C225.473 207.051 225.654 207.232 225.654 207.453C225.654 207.674 225.473 207.855 225.252 207.855Z" fill="#A8B9D5"/>
<path d="M222.91 215.862H219.335C219.114 215.862 218.933 215.681 218.933 215.46C218.933 215.239 219.114 215.058 219.335 215.058H222.91C223.13 215.058 223.311 215.239 223.311 215.46C223.311 215.681 223.131 215.862 222.91 215.862Z" fill="#A8B9D5"/>
<path d="M217.907 215.862H216.078C215.857 215.862 215.676 215.681 215.676 215.46C215.676 215.239 215.857 215.058 216.078 215.058H217.907C218.128 215.058 218.309 215.239 218.309 215.46C218.309 215.681 218.128 215.862 217.907 215.862Z" fill="#A8B9D5"/>
<path d="M226.264 215.862H224.435C224.214 215.862 224.033 215.681 224.033 215.46C224.033 215.239 224.214 215.058 224.435 215.058H226.264C226.485 215.058 226.666 215.239 226.666 215.46C226.665 215.681 226.485 215.862 226.264 215.862Z" fill="#A8B9D5"/>
<path d="M227.182 219.884H221.128C220.907 219.884 220.727 219.703 220.727 219.481C220.727 219.26 220.907 219.079 221.128 219.079H227.182C227.403 219.079 227.583 219.26 227.583 219.481C227.583 219.703 227.403 219.884 227.182 219.884Z" fill="#A8B9D5"/>
<path d="M219.652 219.884H216.078C215.857 219.884 215.676 219.703 215.676 219.481C215.676 219.26 215.857 219.079 216.078 219.079H219.652C219.873 219.079 220.054 219.26 220.054 219.481C220.054 219.703 219.873 219.884 219.652 219.884Z" fill="#A8B9D5"/>
<path d="M230.797 219.884H228.968C228.747 219.884 228.566 219.703 228.566 219.481C228.566 219.26 228.747 219.079 228.968 219.079H230.797C231.018 219.079 231.199 219.26 231.199 219.481C231.198 219.703 231.018 219.884 230.797 219.884Z" fill="#A8B9D5"/>
<path d="M232.117 209.83H216.078C215.857 209.83 215.676 209.649 215.676 209.427C215.676 209.206 215.857 209.025 216.078 209.025H232.117C232.337 209.025 232.518 209.206 232.518 209.427C232.518 209.649 232.337 209.83 232.117 209.83Z" fill="#A8B9D5"/>
<path d="M232.117 217.873H216.078C215.857 217.873 215.676 217.692 215.676 217.47C215.676 217.249 215.857 217.068 216.078 217.068H232.117C232.337 217.068 232.518 217.249 232.518 217.47C232.518 217.692 232.337 217.873 232.117 217.873Z" fill="#A8B9D5"/>
<path d="M228.771 213.851H226.942C226.721 213.851 226.541 213.67 226.541 213.449C226.541 213.228 226.721 213.047 226.942 213.047H228.771C228.992 213.047 229.173 213.228 229.173 213.449C229.173 213.67 228.992 213.851 228.771 213.851Z" fill="#A8B9D5"/>
<path d="M233.804 213.851H230.229C230.008 213.851 229.827 213.67 229.827 213.449C229.827 213.228 230.008 213.047 230.229 213.047H233.804C234.025 213.047 234.205 213.228 234.205 213.449C234.205 213.67 234.024 213.851 233.804 213.851Z" fill="#A8B9D5"/>
<path d="M225.494 213.851H216.078C215.857 213.851 215.676 213.67 215.676 213.449C215.676 213.228 215.857 213.047 216.078 213.047H225.494C225.715 213.047 225.896 213.228 225.896 213.449C225.896 213.67 225.715 213.851 225.494 213.851Z" fill="#A8B9D5"/>
<path d="M245.092 202.199H217.327C216.419 202.199 215.677 201.455 215.677 200.546C215.677 199.637 216.419 198.893 217.327 198.893H245.092C246 198.893 246.742 199.637 246.742 200.546C246.742 201.455 246 202.199 245.092 202.199Z" fill="#A8B9D5"/>
<path d="M217.486 201.233C217.987 201.233 218.393 200.826 218.393 200.324C218.393 199.823 217.987 199.416 217.486 199.416C216.986 199.416 216.58 199.823 216.58 200.324C216.58 200.826 216.986 201.233 217.486 201.233Z" fill="#D9DBEE"/>
<path d="M216.884 200.324C216.884 199.991 217.154 199.721 217.486 199.721C217.819 199.721 218.089 199.991 218.089 200.324C218.089 200.658 217.819 200.928 217.486 200.928C217.154 200.928 216.884 200.658 216.884 200.324Z" fill="#A8B9D5"/>
<path d="M218.941 201.736L218.93 201.748C218.869 201.817 218.762 201.823 218.693 201.761L217.928 201.074C217.86 201.012 217.854 200.905 217.916 200.837L217.926 200.825C217.987 200.756 218.094 200.75 218.163 200.812L218.928 201.499C218.996 201.561 219.002 201.667 218.941 201.736Z" fill="#D9DBEE"/>
<path d="M215.676 204.507C215.676 204.022 216.069 203.628 216.554 203.628C217.038 203.628 217.431 204.022 217.431 204.507C217.431 204.992 217.038 205.386 216.554 205.386C216.069 205.386 215.676 204.992 215.676 204.507Z" fill="#A8B9D5"/>
<path d="M218.309 204.507C218.309 204.022 218.702 203.628 219.186 203.628C219.671 203.628 220.064 204.022 220.064 204.507C220.064 204.992 219.671 205.386 219.186 205.386C218.701 205.386 218.309 204.992 218.309 204.507Z" fill="#A8B9D5"/>
<path d="M220.94 204.507C220.94 204.022 221.333 203.628 221.818 203.628C222.303 203.628 222.696 204.022 222.696 204.507C222.696 204.992 222.303 205.386 221.818 205.386C221.333 205.386 220.94 204.992 220.94 204.507Z" fill="#A8B9D5"/>
<path d="M223.573 204.507C223.573 204.022 223.966 203.628 224.45 203.628C224.935 203.628 225.328 204.022 225.328 204.507C225.328 204.992 224.935 205.386 224.45 205.386C223.966 205.386 223.573 204.992 223.573 204.507Z" fill="#A8B9D5"/>
<path d="M226.205 204.507C226.205 204.022 226.598 203.628 227.083 203.628C227.567 203.628 227.96 204.022 227.96 204.507C227.96 204.992 227.567 205.386 227.083 205.386C226.598 205.386 226.205 204.992 226.205 204.507Z" fill="#A8B9D5"/>
<path d="M276.789 209.228H254.317C253.391 209.228 252.633 208.468 252.633 207.54V196.764C252.633 195.836 253.391 195.077 254.317 195.077H276.789C277.716 195.077 278.474 195.836 278.474 196.764V207.54C278.474 208.468 277.716 209.228 276.789 209.228Z" fill="#D9DBEE"/>
<path d="M278.473 196.764V197.748H252.633V196.764C252.633 195.836 253.391 195.077 254.318 195.077H276.789C277.715 195.077 278.473 195.836 278.473 196.764Z" fill="#A8B9D5"/>
<path d="M253.942 196.412C253.942 196.154 254.152 195.944 254.41 195.944C254.669 195.944 254.878 196.154 254.878 196.412C254.878 196.671 254.669 196.881 254.41 196.881C254.152 196.881 253.942 196.671 253.942 196.412Z" fill="#D9DBEE"/>
<path d="M255.629 196.412C255.629 196.154 255.839 195.944 256.097 195.944C256.356 195.944 256.565 196.154 256.565 196.412C256.565 196.671 256.356 196.881 256.097 196.881C255.839 196.881 255.629 196.671 255.629 196.412Z" fill="#D9DBEE"/>
<path d="M257.317 196.412C257.317 196.154 257.526 195.944 257.785 195.944C258.043 195.944 258.252 196.154 258.252 196.412C258.252 196.671 258.043 196.881 257.785 196.881C257.526 196.881 257.317 196.671 257.317 196.412Z" fill="#D9DBEE"/>
<path d="M256.781 207.548C256.466 207.548 256.208 207.289 256.208 206.974V199.818C256.208 199.502 256.466 199.244 256.781 199.244C257.095 199.244 257.353 199.502 257.353 199.818V206.974C257.353 207.289 257.095 207.548 256.781 207.548Z" fill="#A8B9D5"/>
<path d="M257.77 202.763H255.79C255.478 202.763 255.222 202.507 255.222 202.194C255.222 201.88 255.478 201.624 255.79 201.624H257.77C258.083 201.624 258.339 201.88 258.339 202.194C258.339 202.507 258.083 202.763 257.77 202.763Z" fill="white"/>
<path d="M261.131 207.548C260.817 207.548 260.559 207.289 260.559 206.974V199.818C260.559 199.502 260.817 199.244 261.131 199.244C261.446 199.244 261.704 199.502 261.704 199.818V206.974C261.704 207.289 261.446 207.548 261.131 207.548Z" fill="#A8B9D5"/>
<path d="M262.122 204.169H260.142C259.829 204.169 259.573 203.912 259.573 203.599C259.573 203.286 259.829 203.03 260.142 203.03H262.122C262.434 203.03 262.69 203.286 262.69 203.599C262.69 203.913 262.434 204.169 262.122 204.169Z" fill="white"/>
<path d="M265.483 207.548C265.168 207.548 264.91 207.289 264.91 206.974V199.818C264.91 199.502 265.168 199.244 265.483 199.244C265.797 199.244 266.055 199.502 266.055 199.818V206.974C266.055 207.289 265.798 207.548 265.483 207.548Z" fill="#A8B9D5"/>
<path d="M266.473 201.779H264.493C264.18 201.779 263.924 201.522 263.924 201.209C263.924 200.896 264.18 200.64 264.493 200.64H266.473C266.785 200.64 267.041 200.896 267.041 201.209C267.041 201.522 266.785 201.779 266.473 201.779Z" fill="white"/>
<path d="M269.834 207.548C269.519 207.548 269.261 207.289 269.261 206.974V199.818C269.261 199.502 269.519 199.244 269.834 199.244C270.149 199.244 270.407 199.502 270.407 199.818V206.974C270.407 207.289 270.149 207.548 269.834 207.548Z" fill="#A8B9D5"/>
<path d="M270.824 206.137H268.844C268.531 206.137 268.275 205.881 268.275 205.568C268.275 205.255 268.531 204.998 268.844 204.998H270.824C271.136 204.998 271.392 205.255 271.392 205.568C271.392 205.881 271.136 206.137 270.824 206.137Z" fill="white"/>
<path d="M274.325 207.548C274.01 207.548 273.753 207.289 273.753 206.974V199.818C273.753 199.502 274.01 199.244 274.325 199.244C274.64 199.244 274.898 199.502 274.898 199.818V206.974C274.898 207.289 274.641 207.548 274.325 207.548Z" fill="#A8B9D5"/>
<path d="M275.316 201.779H273.335C273.023 201.779 272.767 201.522 272.767 201.209C272.767 200.896 273.023 200.64 273.335 200.64H275.316C275.628 200.64 275.884 200.896 275.884 201.209C275.884 201.522 275.628 201.779 275.316 201.779Z" fill="white"/>
<path d="M276.913 234.001H254.321C253.424 234.001 252.69 233.265 252.69 232.367V214.051C252.69 213.152 253.424 212.417 254.321 212.417H276.913C277.81 212.417 278.544 213.152 278.544 214.051V232.367C278.544 233.265 277.81 234.001 276.913 234.001Z" fill="#A8B9D5"/>
<path d="M278.543 214.05V215.057H252.689V214.05C252.689 213.152 253.423 212.417 254.321 212.417H276.912C277.809 212.417 278.543 213.152 278.543 214.05Z" fill="#D9DBEE"/>
<path d="M253.948 213.851C253.948 213.593 254.157 213.383 254.415 213.383C254.674 213.383 254.883 213.593 254.883 213.851C254.883 214.11 254.674 214.32 254.415 214.32C254.157 214.32 253.948 214.11 253.948 213.851Z" fill="#A8B9D5"/>
<path d="M255.635 213.851C255.635 213.593 255.844 213.383 256.102 213.383C256.361 213.383 256.57 213.593 256.57 213.851C256.57 214.11 256.361 214.32 256.102 214.32C255.844 214.32 255.635 214.11 255.635 213.851Z" fill="#A8B9D5"/>
<path d="M257.322 213.851C257.322 213.593 257.531 213.383 257.79 213.383C258.048 213.383 258.258 213.593 258.258 213.851C258.258 214.11 258.048 214.32 257.79 214.32C257.531 214.32 257.322 214.11 257.322 213.851Z" fill="#A8B9D5"/>
<path d="M255.233 217.471H254.359C254.138 217.471 253.957 217.29 253.957 217.069C253.957 216.848 254.138 216.666 254.359 216.666H255.233C255.454 216.666 255.635 216.847 255.635 217.069C255.634 217.29 255.454 217.471 255.233 217.471Z" fill="white"/>
<path d="M255.233 219.263H254.359C254.138 219.263 253.957 219.082 253.957 218.861C253.957 218.64 254.138 218.459 254.359 218.459H255.233C255.454 218.459 255.635 218.64 255.635 218.861C255.634 219.082 255.454 219.263 255.233 219.263Z" fill="white"/>
<path d="M255.233 221.056H254.359C254.138 221.056 253.957 220.875 253.957 220.654C253.957 220.433 254.138 220.252 254.359 220.252H255.233C255.454 220.252 255.635 220.432 255.635 220.654C255.634 220.875 255.454 221.056 255.233 221.056Z" fill="white"/>
<path d="M255.233 222.848H254.359C254.138 222.848 253.957 222.668 253.957 222.446C253.957 222.225 254.138 222.044 254.359 222.044H255.233C255.454 222.044 255.635 222.225 255.635 222.446C255.634 222.668 255.454 222.848 255.233 222.848Z" fill="white"/>
<path d="M255.233 224.641H254.359C254.138 224.641 253.957 224.46 253.957 224.239C253.957 224.018 254.138 223.837 254.359 223.837H255.233C255.454 223.837 255.635 224.018 255.635 224.239C255.634 224.46 255.454 224.641 255.233 224.641Z" fill="white"/>
<path d="M255.233 226.434H254.359C254.138 226.434 253.957 226.253 253.957 226.031C253.957 225.81 254.138 225.629 254.359 225.629H255.233C255.454 225.629 255.635 225.81 255.635 226.031C255.634 226.253 255.454 226.434 255.233 226.434Z" fill="white"/>
<path d="M255.233 228.226H254.359C254.138 228.226 253.957 228.046 253.957 227.824C253.957 227.603 254.138 227.422 254.359 227.422H255.233C255.454 227.422 255.635 227.603 255.635 227.824C255.634 228.045 255.454 228.226 255.233 228.226Z" fill="white"/>
<path d="M255.233 230.019H254.359C254.138 230.019 253.957 229.838 253.957 229.617C253.957 229.396 254.138 229.214 254.359 229.214H255.233C255.454 229.214 255.635 229.395 255.635 229.617C255.634 229.838 255.454 230.019 255.233 230.019Z" fill="white"/>
<path d="M255.233 231.812H254.359C254.138 231.812 253.957 231.631 253.957 231.409C253.957 231.188 254.138 231.007 254.359 231.007H255.233C255.454 231.007 255.635 231.188 255.635 231.409C255.634 231.63 255.454 231.812 255.233 231.812Z" fill="white"/>
<path d="M260.045 221.056H256.47C256.249 221.056 256.068 220.875 256.068 220.654C256.068 220.432 256.249 220.252 256.47 220.252H260.045C260.265 220.252 260.446 220.432 260.446 220.654C260.446 220.875 260.265 221.056 260.045 221.056Z" fill="white"/>
<path d="M260.045 222.848H256.47C256.249 222.848 256.068 222.668 256.068 222.446C256.068 222.225 256.249 222.044 256.47 222.044H260.045C260.265 222.044 260.446 222.225 260.446 222.446C260.446 222.668 260.265 222.848 260.045 222.848Z" fill="white"/>
<path d="M260.045 230.019H256.47C256.249 230.019 256.068 229.838 256.068 229.617C256.068 229.395 256.249 229.214 256.47 229.214H260.045C260.265 229.214 260.446 229.395 260.446 229.617C260.446 229.838 260.265 230.019 260.045 230.019Z" fill="white"/>
<path d="M126.593 257.281H129.322C130.284 257.281 131.071 256.493 131.071 255.528V250.634C131.071 249.67 130.284 248.882 129.322 248.882H126.539C126.523 248.389 126.511 247.896 126.506 247.404H130.382C131.637 247.404 132.664 248.433 132.664 249.69V256.474C132.664 257.731 131.637 258.76 130.382 258.76H126.399C126.482 258.267 126.545 257.775 126.593 257.281Z" fill="#995C7D"/>
<path d="M127.986 245.511V260.424C127.986 261.189 127.447 261.817 126.79 261.817H115.832C115.175 261.817 114.636 261.189 114.636 260.424V245.511C114.636 244.744 115.175 244.118 115.832 244.118H126.79C127.447 244.118 127.986 244.744 127.986 245.511Z" fill="#7A3D5F"/>
<path d="M128.178 245.511V260.424C128.178 261.189 127.639 261.817 126.981 261.817H119.263C118.606 261.817 118.067 261.189 118.067 260.424V245.511C118.067 244.744 118.606 244.118 119.263 244.118H126.981C127.639 244.118 128.178 244.744 128.178 245.511Z" fill="#995C7D"/>
<path d="M321.985 206.371C317.443 214.688 315.764 224.445 317.235 233.807C317.359 234.59 318.577 234.421 318.454 233.635C317.013 224.466 318.677 214.98 323.123 206.839C323.504 206.143 322.361 205.682 321.985 206.371Z" fill="#4EB3AF"/>
<path d="M327.866 204.446C328.086 204.106 328.248 203.736 328.288 203.331C328.362 202.572 327.941 201.882 327.238 201.598C326.007 201.101 325.007 201.774 324.253 202.67C323.988 201.901 323.566 201.181 322.857 200.742C322.11 200.278 321.101 200.223 320.325 200.649C319.293 201.215 319.091 202.574 319.64 203.457C318.971 203.52 318.315 203.666 317.733 204.021C316.983 204.478 316.415 205.323 316.424 206.221C316.433 207.115 317.062 207.821 317.887 208.094C318.62 208.337 319.357 208.234 320.069 208.015C319.609 209.714 320.754 211.621 322.7 211.701C324.463 211.773 325.766 210.261 325.702 208.662C325.748 208.528 325.788 208.391 325.819 208.25C326.426 208.389 327.056 208.401 327.656 208.188C328.45 207.906 329.126 207.156 329.22 206.302C329.32 205.388 328.648 204.637 327.866 204.446Z" fill="#FFE989"/>
<path d="M323.623 204.448C323.034 204.448 322.48 204.753 322.398 205.393C322.33 205.92 322.747 206.62 323.341 206.62C323.931 206.62 324.484 206.315 324.567 205.676C324.634 205.148 324.218 204.448 323.623 204.448Z" fill="#F2B263"/>
<path d="M317.382 260.596C322.381 260.596 326.434 254.924 326.434 247.928C326.434 240.931 322.381 235.26 317.382 235.26C312.382 235.26 308.329 240.931 308.329 247.928C308.329 254.924 312.382 260.596 317.382 260.596Z" fill="#F27792"/>
<path d="M319.958 224.297V244.081C319.958 245.54 319.105 246.734 318.062 246.734H316.7C315.658 246.734 314.806 245.54 314.806 244.081V224.297C314.806 222.837 315.658 221.643 316.7 221.643H318.062C319.105 221.643 319.958 222.837 319.958 224.297Z" fill="#F27792"/>
<path d="M323.496 259.227C323.496 259.485 323.467 259.734 323.414 259.971C323.327 260.356 323.174 260.701 322.974 260.983C322.651 261.433 322.207 261.713 321.719 261.713H313.043C312.251 261.713 311.577 260.977 311.35 259.971C311.297 259.735 311.268 259.485 311.268 259.227C311.268 258.542 311.468 257.922 311.789 257.473C312.111 257.023 312.554 256.743 313.043 256.743H321.719C322.696 256.743 323.496 257.86 323.496 259.227Z" fill="#D74C6B"/>
<path d="M320.023 224.847H314.74C313.718 224.847 312.883 224.01 312.883 222.987V222.31C312.883 221.287 313.718 220.45 314.74 220.45H320.023C321.045 220.45 321.88 221.287 321.88 222.31V222.987C321.881 224.01 321.045 224.847 320.023 224.847Z" fill="#F27792"/>
<path d="M323.496 259.227C323.496 259.485 323.467 259.734 323.415 259.971H311.35C311.298 259.734 311.269 259.485 311.269 259.227C311.269 258.542 311.468 257.922 311.79 257.473C312.111 257.023 312.554 256.743 313.044 256.743H321.72C322.696 256.743 323.496 257.86 323.496 259.227Z" fill="#F27792"/>
<path d="M319.958 224.847H314.806V226.393H319.958V224.847Z" fill="#D74C6B"/>
<path d="M315.061 259.566C314.801 257.174 314.819 254.733 314.834 252.32C314.858 248.707 315.158 245.112 315.528 241.541C315.741 239.48 315.982 237.425 316.211 235.368C311.765 236.172 308.329 241.487 308.329 247.928C308.329 253.842 311.225 258.809 315.142 260.204C315.112 259.992 315.084 259.778 315.061 259.566Z" fill="#D74C6B"/>
<path d="M315.528 241.541C315.901 237.936 316.361 234.35 316.687 230.736C316.96 227.706 317.157 224.643 316.767 221.643H316.7C315.658 221.643 314.806 222.837 314.806 224.297V244.081C314.806 244.644 314.934 245.167 315.15 245.598C315.259 244.242 315.388 242.89 315.528 241.541Z" fill="#D74C6B"/>
<path d="M315.061 259.566C314.96 258.631 314.901 257.688 314.868 256.742H313.043C312.554 256.742 312.111 257.022 311.789 257.472C311.468 257.922 311.268 258.542 311.268 259.226C311.268 259.484 311.297 259.734 311.35 259.971C311.577 260.976 312.251 261.712 313.043 261.712H315.42C315.256 261.01 315.139 260.284 315.061 259.566Z" fill="#D74C6B"/>
<path d="M316.578 220.45H314.454C313.59 220.45 312.883 221.439 312.883 222.648C312.883 223.857 313.59 224.847 314.454 224.847H316.984C316.966 223.371 316.849 221.901 316.578 220.45Z" fill="#D74C6B"/>
<path d="M315.061 259.566C314.96 258.631 314.901 257.688 314.868 256.742H313.043C312.554 256.742 312.111 257.022 311.789 257.472C311.468 257.922 311.268 258.542 311.268 259.226C311.268 259.484 311.297 259.734 311.35 259.971H315.11C315.092 259.836 315.076 259.701 315.061 259.566Z" fill="#D74C6B"/>
<path d="M316.983 224.847H314.806V226.393H316.969C316.984 225.877 316.99 225.362 316.983 224.847Z" fill="#D74C6B"/>
<path d="M306.834 257.832L305.706 257.978C305.484 258.007 305.276 257.825 305.243 257.571L302.138 233.592C302.117 233.432 302.266 231.611 302.379 230.291C302.443 229.52 302.496 228.921 302.496 228.921C302.496 228.921 302.706 229.485 302.972 230.214C303.428 231.46 304.051 233.18 304.071 233.34L307.176 257.319C307.209 257.574 307.054 257.803 306.834 257.832Z" fill="white"/>
<path d="M307.243 257.83L304.085 233.442L302.152 233.693L305.31 258.081C305.346 258.362 305.606 258.562 305.886 258.526L306.798 258.407C307.079 258.37 307.279 258.111 307.243 257.83Z" fill="#F2B263"/>
<path d="M307.255 257.924L307.121 256.89L305.188 257.141L305.322 258.176C305.388 258.689 305.862 259.054 306.374 258.988L306.444 258.979C306.956 258.912 307.321 258.438 307.255 257.924Z" fill="#F27792"/>
<path d="M307.158 257.174L307.121 256.89L305.188 257.141L305.225 257.425C305.229 257.458 305.26 257.481 305.293 257.477L307.105 257.242C307.138 257.238 307.162 257.207 307.158 257.174Z" fill="#403E55"/>
<path d="M302.972 230.214L302.379 230.291C302.443 229.52 302.496 228.921 302.496 228.921C302.496 228.921 302.706 229.486 302.972 230.214Z" fill="#403E55"/>
<path d="M308.54 233.42L309.588 233.631C309.794 233.673 309.925 233.898 309.877 234.135L305.404 256.425C305.375 256.573 304.693 258.149 304.194 259.291C303.903 259.958 303.675 260.475 303.675 260.475C303.675 260.475 303.659 259.909 303.642 259.18C303.612 257.932 303.577 256.212 303.607 256.063L308.08 233.773C308.127 233.536 308.335 233.379 308.54 233.42Z" fill="white"/>
<path d="M308.175 233.299L303.626 255.969L305.422 256.331L309.971 233.66C310.024 233.399 309.853 233.142 309.593 233.09L308.744 232.919C308.484 232.866 308.227 233.037 308.175 233.299Z" fill="#F2B263"/>
<path d="M308.193 233.21L308 234.172L309.796 234.534L309.989 233.572C310.085 233.095 309.774 232.627 309.297 232.531L309.232 232.517C308.756 232.422 308.288 232.734 308.193 233.21Z" fill="#F27792"/>
<path d="M308.053 233.908L308 234.172L309.797 234.534L309.85 234.27C309.856 234.239 309.836 234.209 309.805 234.203L308.12 233.863C308.089 233.857 308.059 233.877 308.053 233.908Z" fill="#403E55"/>
<path d="M303.642 259.179L304.194 259.29C303.903 259.958 303.675 260.475 303.675 260.475C303.675 260.475 303.659 259.908 303.642 259.179Z" fill="#403E55"/>
<path d="M302.699 254.582C302.612 254.587 302.536 254.52 302.531 254.434L302.33 251.178C302.325 251.091 302.392 251.015 302.478 251.01C302.565 251.005 302.64 251.072 302.646 251.159L302.847 254.414C302.852 254.501 302.786 254.577 302.699 254.582Z" fill="#403E55"/>
<path d="M302.632 253.501C302.185 253.529 301.796 253.185 301.769 252.737L300.659 234.719C300.631 234.272 300.974 233.883 301.421 233.855C301.869 233.827 302.257 234.171 302.284 234.619L303.394 252.637C303.422 253.085 303.079 253.473 302.632 253.501Z" fill="#78DBBE"/>
<path d="M301.415 234.294C301.168 234.309 300.955 234.12 300.94 233.873L300.804 231.67C300.788 231.424 300.977 231.209 301.224 231.194C301.47 231.179 301.684 231.368 301.699 231.615L301.835 233.818C301.849 234.065 301.661 234.279 301.415 234.294Z" fill="#78DBBE"/>
<path d="M302.731 242.55L301.122 242.649C300.974 242.658 300.846 242.545 300.837 242.397L300.279 233.345C300.242 232.754 300.695 232.24 301.286 232.204C301.876 232.167 302.389 232.621 302.425 233.212L302.983 242.264C302.992 242.412 302.879 242.54 302.731 242.55Z" fill="#7A3D5F"/>
<path d="M302.45 234.735L300.44 234.86C300.325 234.867 300.225 234.778 300.218 234.663L300.213 234.579C300.205 234.464 300.294 234.364 300.409 234.356L302.419 234.232C302.534 234.225 302.634 234.314 302.642 234.429L302.647 234.512C302.654 234.628 302.566 234.728 302.45 234.735Z" fill="#78DBBE"/>
<path d="M302.495 235.458L300.485 235.582C300.37 235.59 300.27 235.501 300.263 235.385L300.257 235.302C300.25 235.186 300.339 235.086 300.454 235.079L302.464 234.955C302.579 234.947 302.679 235.036 302.686 235.152L302.692 235.235C302.699 235.351 302.61 235.451 302.495 235.458Z" fill="#78DBBE"/>
<path d="M310.87 239.354V260.567C310.87 261.245 310.317 261.799 309.64 261.799H300.528C299.852 261.799 299.298 261.245 299.298 260.567V239.354C299.298 238.676 299.851 238.121 300.528 238.121H309.64C310.316 238.121 310.87 238.676 310.87 239.354Z" fill="#5A95BD"/>
<path d="M310.87 239.354V260.567C310.87 261.245 310.317 261.799 309.64 261.799H302.733V238.121H309.64C310.317 238.121 310.87 238.676 310.87 239.354Z" fill="#9ABFDB"/>
<path d="M185.792 222.733H177.419C176.403 222.733 175.573 221.901 175.573 220.885V203.356C175.573 202.339 176.404 201.507 177.419 201.507H185.792C186.807 201.507 187.637 202.339 187.637 203.356V220.885C187.637 221.902 186.807 222.733 185.792 222.733Z" fill="#FB947B"/>
<path d="M187.638 213.471V218.17C183.472 216.549 176.188 209.434 175.574 206.102V203.356C175.574 202.94 175.714 202.553 175.947 202.244C176.769 203.831 177.393 204.812 177.393 204.812L177.997 205.504C179.104 208.682 183.45 211.857 187.638 213.471Z" fill="#E46758"/>
<path d="M192.848 214.562C187.98 214.69 179.597 210.102 177.998 205.504L177.393 204.812C177.393 204.812 167.156 188.746 175.123 181.522C176.969 179.849 179.912 180.16 182.401 180.127L185.225 180.091C192.149 179.997 197.879 184.648 197.959 190.424L198.012 194.416L198.088 200.034C198.088 200.034 198.03 214.426 192.848 214.562Z" fill="#FB947B"/>
<path d="M175.602 203.244C175.602 203.244 175.573 203.274 175.564 203.271C175.554 203.268 175.547 203.265 175.545 203.262C175.542 203.259 175.545 203.256 175.552 203.253C175.561 203.25 175.578 203.245 175.602 203.244Z" fill="white"/>
<path d="M197.502 197.089C199.776 198.571 201.094 200.579 200.448 201.576C199.8 202.572 197.433 202.179 195.159 200.698C192.885 199.216 191.566 197.208 192.213 196.211C192.86 195.215 195.228 195.608 197.502 197.089Z" fill="#FB947B"/>
<path d="M176.538 180.316C176.538 180.316 169.264 180.292 167.72 181.275C165.3 182.816 164.225 185.674 164.832 188.322C164.832 188.33 164.832 188.337 164.833 188.345L164.848 188.389C164.94 188.77 165.064 189.146 165.227 189.513L168.651 199.678C169.404 204.509 172.638 206.455 175.669 206.423C175.669 206.423 181.081 206.125 181.241 199.558L182.119 188.027C182.08 183.755 179.569 180.285 176.538 180.316Z" fill="#191B2A"/>
<path d="M193.656 206.088L197.742 206.578C198.243 206.638 198.703 206.276 198.764 205.774C198.825 205.272 198.464 204.812 197.963 204.751L193.877 204.261C193.376 204.201 192.916 204.563 192.855 205.065C192.794 205.567 193.155 206.027 193.656 206.088Z" fill="#FB947B"/>
<path d="M193.114 207.597L197.199 208.087C197.701 208.147 198.161 207.786 198.222 207.283C198.282 206.781 197.922 206.321 197.42 206.261L193.335 205.771C192.833 205.711 192.373 206.072 192.312 206.575C192.252 207.077 192.612 207.537 193.114 207.597Z" fill="#FB947B"/>
<path d="M180.08 196.957H177.569C176.239 196.957 175.151 195.866 175.151 194.534V179.489C175.151 178.157 176.239 177.066 177.569 177.066H182.265C183.595 177.066 184.683 178.157 184.683 179.489V192.346C184.683 194.882 182.612 196.957 180.08 196.957Z" fill="#191B2A"/>
<path d="M197.389 194.666C197.619 193.207 196.624 191.838 195.167 191.607C193.71 191.377 192.343 192.374 192.113 193.833C191.883 195.292 192.878 196.662 194.335 196.892C195.792 197.122 197.159 196.126 197.389 194.666Z" fill="white"/>
<path d="M197.353 194.844C197.508 193.862 196.838 192.94 195.858 192.785C194.877 192.63 193.956 193.301 193.801 194.283C193.647 195.266 194.317 196.187 195.297 196.343C196.278 196.497 197.199 195.827 197.353 194.844Z" fill="#4994F0"/>
<path d="M197.269 194.83C197.388 194.069 196.87 193.355 196.11 193.235C195.35 193.115 194.637 193.634 194.517 194.395C194.397 195.156 194.916 195.871 195.676 195.991C196.436 196.111 197.149 195.591 197.269 194.83Z" fill="#002539"/>
<path d="M194.628 193.91C194.635 193.866 194.824 193.859 195.051 193.895C195.277 193.931 195.454 193.995 195.448 194.04C195.441 194.084 195.252 194.091 195.025 194.055C194.799 194.019 194.621 193.955 194.628 193.91Z" fill="white"/>
<path d="M195.617 194.508C195.624 194.462 195.593 194.419 195.547 194.412C195.501 194.404 195.458 194.436 195.451 194.482C195.444 194.528 195.475 194.571 195.521 194.578C195.567 194.585 195.61 194.554 195.617 194.508Z" fill="white"/>
<path d="M197.007 194.011L190.129 194.764C189.55 194.827 189.026 194.405 188.962 193.826L188.841 192.715C188.778 192.135 189.199 191.61 189.778 191.546L196.656 190.793C197.235 190.73 197.759 191.152 197.823 191.732L197.944 192.842C198.007 193.422 197.585 193.948 197.007 194.011Z" fill="#FB947B"/>
<path d="M191.985 192.44L197.447 191.842C197.948 191.787 198.312 191.332 198.258 190.831L198.242 190.687C198.187 190.186 197.733 189.82 197.233 189.875L191.771 190.474C191.27 190.529 190.906 190.983 190.96 191.484L190.976 191.629C191.03 192.13 191.485 192.495 191.985 192.44Z" fill="#191B2A"/>
<path d="M180.024 201.656L179.92 201.657C178.378 201.673 177.105 200.422 177.091 198.878L177.09 198.774C177.076 197.23 178.327 195.954 179.869 195.939L179.973 195.938C181.516 195.922 182.789 197.172 182.802 198.717L182.803 198.82C182.817 200.364 181.566 201.64 180.024 201.656Z" fill="#FB947B"/>
<path d="M179.983 200.143L179.934 200.143C179.208 200.151 178.609 199.562 178.603 198.836L178.602 198.787C178.596 198.06 179.184 197.46 179.91 197.452L179.959 197.452C180.685 197.445 181.284 198.033 181.29 198.76L181.291 198.808C181.297 199.535 180.709 200.135 179.983 200.143Z" fill="#E46758"/>
<path d="M183.371 172.611C180.675 173.251 178.066 174.128 176.914 174.531C176.573 174.651 176.231 174.765 175.886 174.871C172.338 175.963 170.152 178.424 170.381 182.029L170.464 183.332C170.561 184.867 171.812 186.036 173.242 185.929L197.281 187.279C197.281 187.279 206.141 186.838 204.764 173.793C204.502 173.965 200.817 175.151 197.839 175.579C196.62 175.755 194.972 174.533 193.498 173.62C190.496 171.761 186.806 171.795 183.371 172.611Z" fill="#191B2A"/>
<path d="M214.109 303.237L217.516 304.923C220.032 306.168 221.074 309.248 219.832 311.768L204.276 343.322C203.869 344.148 202.862 344.489 202.039 344.082L194.056 340.134L211.871 303.997C212.278 303.172 213.285 302.83 214.109 303.237Z" fill="#E27E6A"/>
<path d="M216.877 358.708C216.821 358.839 216.715 358.937 216.593 358.985C216.47 359.036 216.33 359.04 216.198 358.984L191.086 348.235L187.747 346.806C187.409 346.662 187.252 346.266 187.397 345.926L189.059 342.028C189.307 341.446 189.747 340.67 190.333 339.97C190.551 339.707 190.789 339.456 191.047 339.227C192.102 338.294 193.606 338.083 194.891 338.632L211.781 345.862C216.699 347.968 218.991 353.748 216.877 358.708Z" fill="#302E46"/>
<path d="M216.016 359.908L187.062 347.72C186.451 347.462 186.161 346.751 186.418 346.139C186.675 345.527 187.384 345.237 187.995 345.494L216.95 357.683C217.561 357.94 217.85 358.651 217.593 359.263C217.336 359.875 216.626 360.165 216.016 359.908Z" fill="#FEEDED"/>
<path d="M203.503 345.344C203.748 345.548 204.118 345.499 204.324 345.233L205.672 343.501C205.878 343.235 205.846 342.851 205.6 342.647C205.355 342.442 204.985 342.492 204.779 342.758L203.431 344.49C203.225 344.755 203.257 345.14 203.503 345.344Z" fill="#FEEDED"/>
<path d="M205.675 346.275C205.921 346.479 206.29 346.429 206.497 346.164L207.845 344.431C208.051 344.166 208.019 343.782 207.773 343.578C207.528 343.373 207.158 343.423 206.952 343.688L205.604 345.421C205.398 345.686 205.43 346.07 205.675 346.275Z" fill="#FEEDED"/>
<path d="M207.848 347.206C208.094 347.41 208.463 347.36 208.67 347.095L210.017 345.362C210.224 345.097 210.192 344.713 209.946 344.508C209.701 344.304 209.331 344.354 209.125 344.619L207.777 346.352C207.571 346.617 207.602 347.001 207.848 347.206Z" fill="#FEEDED"/>
<path d="M171.415 295.738V282.107C171.415 281.625 171.809 281.23 172.29 281.23H227.226C230.187 281.23 232.609 283.657 232.609 286.623V289.552C232.609 293.436 229.436 296.614 225.559 296.614H172.29C171.809 296.615 171.415 296.22 171.415 295.738Z" fill="#302E46"/>
<path d="M231.779 307.256L239.803 307.357C240.772 307.37 241.556 308.098 241.545 308.977L241.033 349.792L229.884 349.645L229.865 308.948C229.877 308.005 230.738 307.243 231.779 307.256Z" fill="#FB947B"/>
<path d="M195.168 335.671L207.441 341.709C207.857 341.913 208.364 341.74 208.569 341.323L230.933 295.707C232.191 293.143 231.125 290.014 228.565 288.755L220.19 284.635C219.774 284.431 219.266 284.604 219.062 285.021L194.783 334.541C194.579 334.958 194.752 335.467 195.168 335.671Z" fill="#302E46"/>
<path d="M179.214 298.411V284.124C179.214 283.615 179.629 283.199 180.137 283.199H238.451C241.574 283.199 244.13 285.759 244.13 288.888V291.886C244.13 295.983 240.783 299.336 236.692 299.336H180.137C179.629 299.336 179.214 298.919 179.214 298.411Z" fill="#403E55"/>
<path d="M228.212 343.808L242.717 343.959C243.194 343.964 243.588 343.577 243.593 343.099L244.13 291.271C244.153 288.983 242.304 287.093 240.021 287.069L228.8 286.953C228.324 286.948 227.93 287.334 227.925 287.812L227.354 342.931C227.349 343.409 227.735 343.803 228.212 343.808Z" fill="#403E55"/>
<path d="M171.729 299.397H189.662C192.583 299.397 194.973 295.762 194.973 291.319L194.792 276.676H166.406L166.418 291.319C166.418 295.762 168.808 299.397 171.729 299.397Z" fill="#403E55"/>
<path d="M165.368 289.845L194.924 283.188C195.181 283.195 195.397 282.922 195.407 282.578L196.803 232.132C197.049 223.224 191.853 215.853 185.197 215.668L175.643 215.785C169.835 215.624 167.404 221.481 167.189 229.254L165.368 289.845Z" fill="#4EB3AF"/>
<path d="M258.663 358.13C258.661 358.273 258.602 358.404 258.509 358.496C258.415 358.591 258.287 358.649 258.144 358.649L230.835 358.485L227.204 358.464C226.838 358.462 226.539 358.157 226.542 357.788L226.566 353.549C226.57 352.917 226.675 352.031 226.945 351.158C227.044 350.83 227.166 350.507 227.315 350.197C227.927 348.927 229.232 348.149 230.629 348.156L248.996 348.266C254.344 348.298 258.694 352.737 258.663 358.13Z" fill="#403E55"/>
<path d="M258.333 359.571H226.926C226.264 359.571 225.722 359.028 225.722 358.364C225.722 357.701 226.264 357.158 226.926 357.158H258.333C258.996 357.158 259.538 357.701 259.538 358.364C259.538 359.028 258.996 359.571 258.333 359.571Z" fill="#FCFEFF"/>
<path d="M241.164 351.001C241.47 351.094 241.791 350.904 241.879 350.58L242.451 348.459C242.539 348.135 242.36 347.793 242.055 347.7C241.75 347.607 241.428 347.796 241.341 348.121L240.768 350.241C240.681 350.566 240.859 350.908 241.164 351.001Z" fill="white"/>
<path d="M243.527 351.015C243.832 351.109 244.154 350.919 244.242 350.594L244.814 348.474C244.901 348.15 244.723 347.808 244.418 347.714C244.112 347.621 243.791 347.811 243.703 348.135L243.131 350.256C243.044 350.58 243.222 350.922 243.527 351.015Z" fill="white"/>
<path d="M245.89 351.03C246.195 351.123 246.517 350.934 246.605 350.609L247.177 348.489C247.264 348.164 247.086 347.823 246.781 347.729C246.476 347.636 246.154 347.826 246.066 348.15L245.494 350.271C245.407 350.595 245.585 350.937 245.89 351.03Z" fill="white"/>
<path d="M248.734 254.169C243.332 254.217 238.821 256.906 237.583 260.498C237.272 261.4 238.232 262.266 239.529 262.255L258.082 262.091C259.379 262.08 260.323 261.197 259.997 260.3C258.696 256.73 254.136 254.121 248.734 254.169Z" fill="#507087"/>
<path d="M245.051 250.646C240.006 251.393 236.256 255.301 235.726 259.912C235.592 261.07 236.641 262.021 237.853 261.842L255.178 259.276C256.39 259.096 257.118 257.882 256.657 256.812C254.816 252.552 250.096 249.899 245.051 250.646Z" fill="#F6977A"/>
<path d="M236.576 261.837L199.522 258.535L200.358 249.126L244.194 254.606L241.623 259.175C240.609 260.979 238.634 262.02 236.576 261.837Z" fill="#FB947B"/>
<path d="M198.392 258.581L202.905 255.459C204.512 254.347 204.919 252.121 203.809 250.511L183.312 220.78C182.202 219.17 179.98 218.763 178.373 219.874L177.562 220.435C173.919 222.955 172.997 228.003 175.513 231.653L193.452 257.675C194.563 259.285 196.785 259.693 198.392 258.581Z" fill="#78DBBE"/>
<path d="M235.347 253.379L234.123 263.963C234.081 264.317 233.758 264.57 233.406 264.524L229.053 263.949L226.654 263.632L223.773 263.253L221.377 262.935L218.496 262.555L216.097 262.239L196.674 259.674C194.544 259.392 192.998 257.538 193.238 255.556L193.79 250.986C194.03 249.003 195.968 247.61 198.098 247.891L217.695 250.444L220.094 250.757L222.976 251.133L225.374 251.444L228.255 251.82L230.654 252.132L234.796 252.672C235.142 252.716 235.387 253.032 235.347 253.379Z" fill="#78DBBE"/>
<path d="M230.654 252.132L229.053 263.949L226.654 263.632L228.255 251.82L230.654 252.132Z" fill="#4EB3AF"/>
<path d="M225.374 251.444L223.773 263.253L221.377 262.935L222.976 251.133L225.374 251.444Z" fill="#4EB3AF"/>
<path d="M220.094 250.757L218.496 262.555L216.097 262.239L217.695 250.444L220.094 250.757Z" fill="#4EB3AF"/>
<path d="M173.995 309.489H165.543C156.823 309.489 149.754 302.905 149.754 294.783V225.995C149.754 224.026 151.467 222.43 153.581 222.43H170.168C172.282 222.43 173.995 224.026 173.995 225.995V285.474C173.995 288.894 176.095 292.013 179.399 293.504L183.06 295.155L173.995 309.489Z" fill="#D74C6B"/>
<path d="M187.694 356.854C190.243 356.854 192.329 354.764 192.329 352.211V323.76C192.329 321.207 190.244 319.118 187.694 319.118C185.145 319.118 183.059 321.207 183.059 323.76V352.211C183.059 354.764 185.145 356.854 187.694 356.854Z" fill="#6F8EAA"/>
<path d="M162.484 366.624C164.884 366.234 166.513 363.97 166.124 361.566C165.734 359.163 163.473 357.53 161.074 357.921C158.675 358.311 157.045 360.575 157.435 362.979C157.824 365.382 160.085 367.014 162.484 366.624Z" fill="#507087"/>
<path d="M182.452 365.388C184.171 363.667 184.171 360.875 182.452 359.154C180.733 357.432 177.946 357.432 176.227 359.154C174.509 360.875 174.509 363.667 176.227 365.388C177.946 367.11 180.733 367.11 182.452 365.388Z" fill="#507087"/>
<path d="M197.625 366.624C200.024 366.234 201.654 363.969 201.264 361.566C200.875 359.162 198.614 357.53 196.215 357.92C193.815 358.31 192.186 360.575 192.575 362.978C192.965 365.382 195.225 367.014 197.625 366.624Z" fill="#507087"/>
<path d="M215.195 366.623C217.595 366.233 219.224 363.969 218.835 361.565C218.445 359.162 216.185 357.53 213.785 357.92C211.386 358.31 209.756 360.574 210.146 362.978C210.535 365.381 212.796 367.013 215.195 366.623Z" fill="#507087"/>
<path d="M162.356 360.612H213.751C216.321 360.612 218.423 358.507 218.423 355.932C218.423 353.358 216.321 351.252 213.751 351.252H162.356C159.786 351.252 157.683 353.358 157.683 355.932C157.683 358.506 159.786 360.612 162.356 360.612Z" fill="#6F8EAA"/>
<path d="M184.084 330.344H191.305C193.866 330.344 195.962 328.245 195.962 325.68V307.336C195.962 304.771 193.866 302.671 191.305 302.671H184.084C181.523 302.671 179.427 304.771 179.427 307.336V325.68C179.427 328.245 181.522 330.344 184.084 330.344Z" fill="#507087"/>
<path d="M164.124 314.473H212.132C214.133 314.473 215.755 312.848 215.755 310.844V307.806C215.755 305.802 214.133 304.177 212.132 304.177H164.124C162.123 304.177 160.501 305.801 160.501 307.806V310.844C160.501 312.848 162.123 314.473 164.124 314.473Z" fill="#507087"/>
<path d="M204.543 277.891H172.986C171.799 277.891 170.828 276.918 170.828 275.729V273.298C170.828 272.109 171.799 271.136 172.986 271.136H204.543C205.73 271.136 206.701 272.109 206.701 273.298V275.729C206.701 276.918 205.73 277.891 204.543 277.891Z" fill="#6F8EAA"/>
<path d="M208.046 280.076H183.932C182.498 280.076 181.324 278.901 181.324 277.464V271.655C181.324 270.218 182.498 269.043 183.932 269.043H208.046C210.978 269.043 213.377 271.446 213.377 274.383V274.736C213.377 277.673 210.978 280.076 208.046 280.076Z" fill="#F27792"/>
<path d="M212.233 278.032C211.255 279.274 209.74 280.076 208.045 280.076H183.931C182.691 280.076 181.647 279.198 181.387 278.032H212.233Z" fill="#D74C6B"/>
<path d="M219.103 295.155H176.707C172.479 295.155 169.051 291.962 169.051 288.025V225.995C169.051 224.026 167.338 222.43 165.224 222.43H148.637C146.523 222.43 144.81 224.026 144.81 225.995V294.783C144.81 302.812 151.718 309.337 160.301 309.485C160.603 309.522 160.911 309.543 161.224 309.543H219.103C223.043 309.543 226.267 306.54 226.267 302.869V301.827C226.267 298.158 223.043 295.155 219.103 295.155Z" fill="#F27792"/>
</g>
<ellipse cx="232.5" cy="255.5" rx="342.5" ry="368.5" fill="white"/>
</g>
<defs>
<filter id="filter0_d_247_17" x="0" y="0" width="438" height="964" filterUnits="userSpaceOnUse" color-interpolation-filters="sRGB">
<feFlood flood-opacity="0" result="BackgroundImageFix"/>
<feColorMatrix in="SourceAlpha" type="matrix" values="0 0 0 0 0 0 0 0 0 0 0 0 0 0 0 0 0 0 127 0" result="hardAlpha"/>
<feOffset dy="4"/>
<feGaussianBlur stdDeviation="2"/>
<feComposite in2="hardAlpha" operator="out"/>
<feColorMatrix type="matrix" values="0 0 0 0 0 0 0 0 0 0 0 0 0 0 0 0 0 0 0.25 0"/>
<feBlend mode="normal" in2="BackgroundImageFix" result="effect1_dropShadow_247_17"/>
<feBlend mode="normal" in="SourceGraphic" in2="effect1_dropShadow_247_17" result="shape"/>
</filter>
<linearGradient id="paint0_linear_247_17" x1="215" y1="0" x2="215" y2="956" gradientUnits="userSpaceOnUse">
<stop offset="0.24" stop-color="#00618A"/>
<stop offset="1" stop-color="#D2D2D2"/>
</linearGradient>
<clipPath id="clip0_247_17">
<rect width="430" height="956" fill="white" transform="translate(4)"/>
</clipPath>
<clipPath id="clip1_247_17">
<rect width="394" height="296" fill="white" transform="translate(19 92)"/>
</clipPath>
</defs>
</svg>
