<svg width="438" height="964" viewBox="0 0 438 964" fill="none" xmlns="http://www.w3.org/2000/svg">
<g clip-path="url(#clip0_247_2)" filter="url(#filter0_d_247_2)">
<rect width="430" height="956" transform="translate(4)" fill="url(#paint0_linear_247_2)"/>
<path d="M434 1.52588e-05C434 122.481 434 51.0001 434 553.511C377.458 597.843 307.818 624 232.5 624C144.699 624 64.6146 588.454 4 530.008C4 -1.52588e-05 4 109.051 4 -1.52588e-05C434 1.52588e-05 4.00002 -1.52588e-05 216 1.52588e-05C434 4.66401e-05 3.99997 -3.05176e-05 434 1.52588e-05Z" fill="white"/>
</g>
<defs>
<filter id="filter0_d_247_2" x="0" y="0" width="438" height="964" filterUnits="userSpaceOnUse" color-interpolation-filters="sRGB">
<feFlood flood-opacity="0" result="BackgroundImageFix"/>
<feColorMatrix in="SourceAlpha" type="matrix" values="0 0 0 0 0 0 0 0 0 0 0 0 0 0 0 0 0 0 127 0" result="hardAlpha"/>
<feOffset dy="4"/>
<feGaussianBlur stdDeviation="2"/>
<feComposite in2="hardAlpha" operator="out"/>
<feColorMatrix type="matrix" values="0 0 0 0 0 0 0 0 0 0 0 0 0 0 0 0 0 0 0.25 0"/>
<feBlend mode="normal" in2="BackgroundImageFix" result="effect1_dropShadow_247_2"/>
<feBlend mode="normal" in="SourceGraphic" in2="effect1_dropShadow_247_2" result="shape"/>
</filter>
<linearGradient id="paint0_linear_247_2" x1="215" y1="0" x2="215" y2="956" gradientUnits="userSpaceOnUse">
<stop offset="0.24" stop-color="#00618A"/>
<stop offset="1" stop-color="#D2D2D2"/>
</linearGradient>
<clipPath id="clip0_247_2">
<rect width="430" height="956" fill="white" transform="translate(4)"/>
</clipPath>
</defs>
</svg>
