<svg width="24" height="25" viewBox="0 0 24 25" fill="none" xmlns="http://www.w3.org/2000/svg">
<mask id="mask0_89_112" style="mask-type:alpha" maskUnits="userSpaceOnUse" x="0" y="0" width="24" height="25">
<rect y="0.5" width="24" height="24" fill="#D9D9D9"/>
</mask>
<g mask="url(#mask0_89_112)">
<path d="M3.55 12.5L10.9 19.85C11.15 20.1 11.2708 20.3917 11.2625 20.725C11.2542 21.0583 11.125 21.35 10.875 21.6C10.625 21.85 10.3333 21.975 10 21.975C9.66666 21.975 9.375 21.85 9.125 21.6L1.425 13.925C1.225 13.725 1.075 13.5 0.974997 13.25C0.874997 13 0.824997 12.75 0.824997 12.5C0.824997 12.25 0.874997 12 0.974997 11.75C1.075 11.5 1.225 11.275 1.425 11.075L9.125 3.37499C9.375 3.12499 9.67083 3.00415 10.0125 3.01249C10.3542 3.02082 10.65 3.14999 10.9 3.39999C11.15 3.64999 11.275 3.94165 11.275 4.27499C11.275 4.60832 11.15 4.89999 10.9 5.14999L3.55 12.5Z" fill="#4C4C4C"/>
</g>
</svg>
