<svg width="35" height="35" viewBox="0 0 35 35" fill="none" xmlns="http://www.w3.org/2000/svg">
<mask id="mask0_193_386" style="mask-type:alpha" maskUnits="userSpaceOnUse" x="0" y="0" width="35" height="35">
<rect width="35" height="35" fill="#D9D9D9"/>
</mask>
<g mask="url(#mask0_193_386)">
<path d="M17.5 32.0833C16.8681 32.0833 16.2969 31.9314 15.7865 31.6276C15.2761 31.3238 14.875 30.9167 14.5834 30.4063C13.7813 30.4063 13.0947 30.1207 12.5235 29.5495C11.9523 28.9783 11.6667 28.2917 11.6667 27.4896V22.3125C10.2327 21.3646 9.08424 20.1129 8.22139 18.5573C7.35855 17.0017 6.92712 15.3125 6.92712 13.4896C6.92712 10.5486 7.95403 8.05122 10.0079 5.9974C12.0617 3.94358 14.5591 2.91667 17.5 2.91667C20.441 2.91667 22.9384 3.94358 24.9922 5.9974C27.046 8.05122 28.073 10.5486 28.073 13.4896C28.073 15.3611 27.6415 17.0625 26.7787 18.5938C25.9158 20.125 24.7674 21.3646 23.3334 22.3125V27.4896C23.3334 28.2917 23.0478 28.9783 22.4766 29.5495C21.9054 30.1207 21.2188 30.4063 20.4167 30.4063C20.125 30.9167 19.724 31.3238 19.2136 31.6276C18.7032 31.9314 18.132 32.0833 17.5 32.0833ZM14.5834 27.4896H20.4167V26.1771H14.5834V27.4896ZM14.5834 24.7188H20.4167V23.3333H14.5834V24.7188ZM14.2917 20.4167H16.4063V16.4792L13.198 13.2708L14.7292 11.7396L17.5 14.5104L20.2709 11.7396L21.8021 13.2708L18.5938 16.4792V20.4167H20.7084C22.0209 19.7847 23.0903 18.855 23.9167 17.6276C24.7431 16.4002 25.1563 15.0208 25.1563 13.4896C25.1563 11.3507 24.415 9.53994 22.9323 8.0573C21.4497 6.57466 19.6389 5.83334 17.5 5.83334C15.3612 5.83334 13.5504 6.57466 12.0677 8.0573C10.5851 9.53994 9.84379 11.3507 9.84379 13.4896C9.84379 15.0208 10.257 16.4002 11.0834 17.6276C11.9098 18.855 12.9792 19.7847 14.2917 20.4167Z" fill="white"/>
</g>
</svg>
