<svg width="25" height="25" viewBox="0 0 25 25" fill="none" xmlns="http://www.w3.org/2000/svg">
<mask id="mask0_177_59" style="mask-type:alpha" maskUnits="userSpaceOnUse" x="0" y="0" width="25" height="25">
<rect x="0.5" y="0.5" width="24" height="24" fill="#D9D9D9"/>
</mask>
<g mask="url(#mask0_177_59)">
<path d="M4.5 18.5C4.21667 18.5 3.97917 18.4042 3.7875 18.2125C3.59583 18.0208 3.5 17.7833 3.5 17.5C3.5 17.2167 3.59583 16.9792 3.7875 16.7875C3.97917 16.5958 4.21667 16.5 4.5 16.5H20.5C20.7833 16.5 21.0208 16.5958 21.2125 16.7875C21.4042 16.9792 21.5 17.2167 21.5 17.5C21.5 17.7833 21.4042 18.0208 21.2125 18.2125C21.0208 18.4042 20.7833 18.5 20.5 18.5H4.5ZM4.5 13.5C4.21667 13.5 3.97917 13.4042 3.7875 13.2125C3.59583 13.0208 3.5 12.7833 3.5 12.5C3.5 12.2167 3.59583 11.9792 3.7875 11.7875C3.97917 11.5958 4.21667 11.5 4.5 11.5H20.5C20.7833 11.5 21.0208 11.5958 21.2125 11.7875C21.4042 11.9792 21.5 12.2167 21.5 12.5C21.5 12.7833 21.4042 13.0208 21.2125 13.2125C21.0208 13.4042 20.7833 13.5 20.5 13.5H4.5ZM4.5 8.5C4.21667 8.5 3.97917 8.40417 3.7875 8.2125C3.59583 8.02083 3.5 7.78333 3.5 7.5C3.5 7.21667 3.59583 6.97917 3.7875 6.7875C3.97917 6.59583 4.21667 6.5 4.5 6.5H20.5C20.7833 6.5 21.0208 6.59583 21.2125 6.7875C21.4042 6.97917 21.5 7.21667 21.5 7.5C21.5 7.78333 21.4042 8.02083 21.2125 8.2125C21.0208 8.40417 20.7833 8.5 20.5 8.5H4.5Z" fill="white"/>
</g>
</svg>
