<svg width="25" height="25" viewBox="0 0 25 25" fill="none" xmlns="http://www.w3.org/2000/svg">
<mask id="mask0_177_63" style="mask-type:alpha" maskUnits="userSpaceOnUse" x="0" y="0" width="25" height="25">
<rect x="0.5" y="0.5" width="24" height="24" fill="#D9D9D9"/>
</mask>
<g mask="url(#mask0_177_63)">
<path d="M12.5 20.5C11.95 20.5 11.4792 20.3042 11.0875 19.9125C10.6958 19.5208 10.5 19.05 10.5 18.5C10.5 17.95 10.6958 17.4792 11.0875 17.0875C11.4792 16.6958 11.95 16.5 12.5 16.5C13.05 16.5 13.5208 16.6958 13.9125 17.0875C14.3042 17.4792 14.5 17.95 14.5 18.5C14.5 19.05 14.3042 19.5208 13.9125 19.9125C13.5208 20.3042 13.05 20.5 12.5 20.5ZM12.5 14.5C11.95 14.5 11.4792 14.3042 11.0875 13.9125C10.6958 13.5208 10.5 13.05 10.5 12.5C10.5 11.95 10.6958 11.4792 11.0875 11.0875C11.4792 10.6958 11.95 10.5 12.5 10.5C13.05 10.5 13.5208 10.6958 13.9125 11.0875C14.3042 11.4792 14.5 11.95 14.5 12.5C14.5 13.05 14.3042 13.5208 13.9125 13.9125C13.5208 14.3042 13.05 14.5 12.5 14.5ZM12.5 8.5C11.95 8.5 11.4792 8.30417 11.0875 7.9125C10.6958 7.52083 10.5 7.05 10.5 6.5C10.5 5.95 10.6958 5.47917 11.0875 5.0875C11.4792 4.69583 11.95 4.5 12.5 4.5C13.05 4.5 13.5208 4.69583 13.9125 5.0875C14.3042 5.47917 14.5 5.95 14.5 6.5C14.5 7.05 14.3042 7.52083 13.9125 7.9125C13.5208 8.30417 13.05 8.5 12.5 8.5Z" fill="white"/>
</g>
</svg>
